<svg width="34" height="34" viewBox="0 0 34 34" fill="none" xmlns="http://www.w3.org/2000/svg">
<path d="M15.0555 18.285V4.63034C15.0554 4.46318 14.9881 4.30289 14.8683 4.18469C14.7485 4.06649 14.5861 4.00006 14.4167 4C7.01831 4.00093 1 10.5055 1 18.5003C1.00448 22.3445 2.55405 26.0299 5.30879 28.7482C8.06353 31.4664 11.7985 32.9955 15.6943 33C19.3195 33 21.2808 32.3509 23.7672 30.334C23.8956 30.2296 23.9777 30.08 23.9961 29.9168C24.0145 29.7537 23.9677 29.5899 23.8656 29.4602L15.0555 18.285ZM15.6943 31.7393C12.1372 31.7354 8.72697 30.3393 6.21176 27.8574C3.69654 25.3755 2.28178 22.0105 2.27786 18.5006C2.27786 11.4349 7.38012 5.64389 13.7779 5.27946V18.5006C13.7777 18.641 13.8254 18.7773 13.9132 18.8877L22.4691 29.7421C20.4517 31.2627 18.7688 31.7393 15.6943 31.7393V31.7393Z" fill="#4CA780" stroke="#4CA780"/>
<path d="M17.6666 17H32.3334C32.5102 16.9999 32.6797 16.9297 32.8047 16.8047C32.9297 16.6797 32.9999 16.5102 33 16.3334C32.9953 12.2682 31.3784 8.37085 28.5038 5.4963C25.6293 2.62175 21.7319 1.00474 17.6666 1C17.4898 1.00006 17.3203 1.07032 17.1953 1.19531C17.0703 1.3203 17.0001 1.48982 17 1.66658V16.3334C17.0001 16.5102 17.0703 16.6797 17.1953 16.8047C17.3203 16.9297 17.4898 16.9999 17.6666 17V17ZM18.3334 2.34837C21.8107 2.51836 25.1003 3.97612 27.562 6.4379C30.0236 8.89969 31.4811 12.1894 31.6509 15.6666H18.3334V2.34837Z" fill="#4CA780" stroke="#4CA780"/>
<path d="M32.0005 18.7002H18.6672C18.5413 18.7 18.4179 18.7355 18.3114 18.8025C18.2048 18.8696 18.1194 18.9654 18.0651 19.079C18.0108 19.1926 17.9898 19.3193 18.0046 19.4443C18.0193 19.5694 18.0692 19.6877 18.1485 19.7855L26.8151 30.5149C26.8724 30.5865 26.944 30.6454 27.0252 30.6878C27.1064 30.7303 27.1956 30.7554 27.2871 30.7616C27.303 30.7628 27.3177 30.7628 27.3336 30.7628C27.5023 30.7625 27.6647 30.6987 27.7884 30.5841C29.325 29.147 30.5507 27.4102 31.3898 25.4809C32.229 23.5515 32.6637 21.4707 32.6671 19.3668C32.667 19.19 32.5968 19.0205 32.4718 18.8955C32.3468 18.7705 32.1773 18.7003 32.0005 18.7002ZM27.3915 29.1055L20.0634 20.0346H31.3182C31.1496 23.4337 29.7544 26.6565 27.3912 29.1055H27.3915Z" fill="#4CA780" stroke="#4CA780"/>
</svg>
