<svg width="172" height="29" viewBox="0 0 172 29" fill="none" xmlns="http://www.w3.org/2000/svg">
<path d="M67.4419 2.61334C67.4419 1.92023 67.7172 1.2555 68.2073 0.7654C68.6974 0.275297 69.3622 -4.06609e-05 70.0553 -4.06609e-05C70.7484 -4.06609e-05 71.4131 0.275297 71.9032 0.7654C72.3933 1.2555 72.6687 1.92023 72.6687 2.61334C72.6434 3.28957 72.357 3.92969 71.8697 4.39918C71.3823 4.86868 70.732 5.13098 70.0553 5.13098C69.3786 5.13098 68.7282 4.86868 68.2409 4.39918C67.7535 3.92969 67.4671 3.28957 67.4419 2.61334" fill="#273B7D"/>
<path d="M108.675 20.0425C108.675 18.5921 109.844 17.4201 111.283 17.4201C111.978 17.4201 112.645 17.6962 113.136 18.1876C113.628 18.6791 113.904 19.3457 113.904 20.0407C113.904 20.7358 113.628 21.4023 113.136 21.8938C112.645 22.3853 111.978 22.6614 111.283 22.6614C109.845 22.6614 108.675 21.4875 108.675 20.0407" fill="#499FDD"/>
<path d="M24.5523 18.9089C22.3029 18.9089 20.7378 17.1217 20.7378 14.5666C20.7378 12.0133 22.3029 10.2279 24.5541 10.2279C26.8162 10.2279 28.3977 12.0133 28.3977 14.5666C28.3977 17.1618 26.8509 18.9089 24.5523 18.9089V18.9089ZM24.5523 6.41162C19.7915 6.41162 16.3354 9.84213 16.3354 14.5666C16.3354 19.2929 19.7933 22.7216 24.5523 22.7216C29.3332 22.7216 32.8019 19.2929 32.8019 14.5684C32.8019 9.84213 29.3332 6.41162 24.5541 6.41162H24.5523ZM62.3807 14.9761C62.215 14.6556 62.0055 14.3598 61.7583 14.0971L61.6127 13.946L61.7656 13.8004C61.984 13.5693 62.2078 13.2963 62.4225 12.9796L66.6265 6.73374H61.5236L58.366 11.6202C58.1876 11.8822 57.8274 12.0133 57.2868 12.0133H56.568V2.77546C56.568 0.928264 55.416 0.677118 54.173 0.677118H52.0436L52.0491 22.4813H56.5697V15.9406H56.9938C57.5089 15.9406 57.8582 16.0007 58.0202 16.2809L60.5134 20.9872C61.2105 22.2648 61.9038 22.4813 63.2105 22.4813H66.6738L64.0933 18.2155L62.3825 14.9761H62.3807ZM84.3251 6.37522C82.0247 6.37522 80.5578 7.398 79.7352 8.26246L79.4623 8.53908L79.364 8.16236C79.1238 7.23604 78.3085 6.72828 77.0837 6.72828H75.0581L75.0709 22.4759H79.5605V15.2181C79.5605 14.5084 79.6515 13.8932 79.8408 13.3309C80.3394 11.6293 81.7335 10.5719 83.4751 10.5719C84.8764 10.5719 85.4243 11.3126 85.4243 13.2235V20.0827C85.4243 21.7133 86.1795 22.4759 87.8119 22.4759H89.9485L89.9413 12.4591C89.9413 8.48085 87.9995 6.37704 84.3251 6.37704V6.37522ZM70.1098 6.73374H67.9823L67.9969 18.9107V22.4813H70.2663L70.3464 22.485L71.4056 22.4813H72.4575V22.4759H72.4647L72.4739 9.12691C72.4739 7.5163 71.7041 6.73556 70.1117 6.73556L70.1098 6.73374ZM42.1853 18.9089C39.9359 18.9089 38.369 17.1217 38.369 14.5666C38.369 12.0133 39.9359 10.2279 42.1872 10.2279C44.4438 10.2279 46.0308 12.0133 46.0308 14.5666C46.0308 17.1618 44.4839 18.9089 42.1872 18.9089H42.1853ZM42.1853 6.41162C37.4208 6.41162 33.9629 9.84213 33.9629 14.5666C33.9629 19.2929 37.4208 22.7216 42.1872 22.7216C46.9607 22.7216 50.4367 19.2929 50.4367 14.5684C50.4367 9.84213 46.9607 6.41162 42.1872 6.41162" fill="#273B7D"/>
<path d="M138.412 18.909C136.163 18.909 134.594 17.1218 134.594 14.5667C134.594 12.0134 136.163 10.2281 138.412 10.2281C140.673 10.2281 142.258 12.0134 142.258 14.5667C142.258 17.1619 140.711 18.909 138.412 18.909ZM138.412 6.41175C133.648 6.41175 130.192 9.84225 130.192 14.5667C130.192 19.293 133.648 22.7217 138.412 22.7217C143.188 22.7217 146.662 19.293 146.662 14.5685C146.662 9.84225 143.186 6.41175 138.412 6.41175" fill="#499FDD"/>
<path d="M99.4066 18.2156C96.9516 18.2156 96.078 16.0754 96.078 14.0681C96.078 13.1836 96.3018 10.3027 99.1718 10.3027C100.597 10.3027 102.495 10.7104 102.495 14.2155C102.495 17.5223 100.815 18.2156 99.4066 18.2156V18.2156ZM104.826 6.69203C103.974 6.69203 103.319 7.03235 102.99 7.65294L102.866 7.89316L102.659 7.71117C101.934 7.08513 100.635 6.34079 98.5258 6.34079C94.3273 6.34079 91.501 9.49468 91.501 14.1846C91.501 18.8726 94.4256 22.1484 98.6095 22.1484C100.038 22.1484 101.168 21.8136 102.064 21.1366L102.409 20.8763V21.3131C102.409 23.4169 101.05 24.578 98.584 24.578C97.3847 24.578 96.2946 24.2868 95.563 24.0211C94.613 23.7336 94.0524 23.972 93.6684 24.9274L93.3118 25.8082L92.8076 27.0967L93.1188 27.2623C94.6985 28.0995 96.7532 28.6 98.6095 28.6C102.431 28.6 106.897 26.6436 106.897 21.1366L106.914 6.69203H104.826" fill="#273B7D"/>
<path d="M7.83465 18.7286L4.1803 18.7249V14.3572C4.1803 13.4218 4.54246 12.9377 5.3414 12.8248H7.83465C9.61269 12.8248 10.7628 13.9459 10.7647 15.7603C10.7628 17.6239 9.64181 18.7268 7.83465 18.7268V18.7286ZM4.1803 6.94291V5.79274C4.1803 4.78633 4.60618 4.3077 5.53978 4.24582H7.41067C9.014 4.24582 9.9749 5.20491 9.9749 6.81188C9.9749 8.03485 9.31607 9.46347 7.46887 9.46347H4.1803V6.94291V6.94291ZM12.5009 11.3034L11.8402 10.9321L12.4172 10.4389C13.0887 9.86203 14.2116 8.56444 14.2116 6.32597C14.2116 2.89728 11.5546 0.684278 7.43977 0.684278H2.20934C1.62081 0.705736 1.06312 0.952808 0.651805 1.37429C0.240486 1.79577 0.00708735 2.35935 0 2.94823V22.403H7.53252C12.1059 22.403 15.0578 19.9133 15.0578 16.057C15.0578 13.9805 14.1043 12.2061 12.5009 11.3034" fill="#273B7D"/>
<path d="M166.716 6.42793C165.789 6.43134 164.874 6.64293 164.04 7.04707C163.206 7.45121 162.474 8.03758 161.896 8.76286L161.573 9.17415L161.318 8.71372C160.484 7.19774 159.054 6.42793 157.065 6.42793C154.977 6.42793 153.578 7.59266 152.928 8.28422L152.502 8.74466L152.338 8.13863C152.102 7.26508 151.325 6.78645 150.149 6.78645H148.262L148.244 22.474H152.529V15.5493C152.529 14.9414 152.606 14.3427 152.757 13.7148C153.166 12.0405 154.291 10.2406 156.182 10.4208C157.347 10.5336 157.918 11.4345 157.918 13.1743V22.474H162.235V15.5493C162.235 14.7904 162.306 14.2226 162.477 13.6547C162.823 12.0569 163.999 10.419 165.822 10.419C167.143 10.419 167.631 11.1651 167.631 13.1743V20.1809C167.631 21.7642 168.337 22.474 169.922 22.474H171.939L171.942 12.4591C171.942 8.45711 170.181 6.42793 166.716 6.42793V6.42793ZM127.708 17.027C127.695 17.0434 125.852 18.9871 123.422 18.9871C121.209 18.9871 118.974 17.6294 118.974 14.5993C118.974 11.9823 120.707 10.1533 123.189 10.1533C123.993 10.1533 124.911 10.4408 125.054 10.9267L125.074 11.0086C125.166 11.3431 125.366 11.6381 125.642 11.8477C125.918 12.0573 126.256 12.1698 126.603 12.1679L128.951 12.1715V10.1187C128.951 7.41067 125.506 6.42793 123.189 6.42793C118.232 6.42793 114.635 9.87845 114.635 14.632C114.635 19.382 118.192 22.8289 123.098 22.8289C127.353 22.8289 129.668 20.0317 129.69 20.0044L129.814 19.8515L127.954 16.7668L127.708 17.027" fill="#499FDD"/>
</svg>
