<svg width="164" height="41" viewBox="0 0 164 41" fill="none" xmlns="http://www.w3.org/2000/svg">
<path d="M16.5288 22.0797H22.042V38.8018C18.0786 39.5078 13.993 38.8945 10.4116 37.0558C6.83022 35.2172 3.95073 32.2546 2.2146 28.6224H8.39197C9.32304 29.9578 10.5327 31.0755 11.9374 31.8983C13.3422 32.721 14.9086 33.2294 16.5288 33.3883V22.0797Z" fill="#D4060E"/>
<path d="M3.77564 8.79497H10.9161C13.5332 6.71549 16.8381 5.69903 20.1714 5.94834C23.5048 6.19765 26.6216 7.6944 28.9003 10.14H2.41396C1.03304 12.7222 0.223458 15.571 0.04009 18.4934C-0.143278 21.4158 0.303858 24.3435 1.35118 27.078H7.21304C7.21304 27.078 3.77564 20.5851 6.15027 15.7528H37.5851C36.8026 11.6828 34.6866 7.98938 31.5713 5.2559C28.4559 2.52243 24.5187 0.904673 20.3815 0.658119C20.3815 0.658119 8.75738 0.0437033 3.77564 8.79497ZM23.7026 33.0229V38.5858C23.7026 38.5858 35.8415 36.344 38.1829 21.8804H32.6532C32.3153 24.3759 31.3034 26.7321 29.7263 28.6954C28.1492 30.6587 26.0666 32.1549 23.7026 33.0229Z" fill="#D4060E"/>
<path d="M19.1856 21.6479C20.6897 21.6479 21.909 20.4286 21.909 18.9245C21.909 17.4205 20.6897 16.2012 19.1856 16.2012C17.6816 16.2012 16.4623 17.4205 16.4623 18.9245C16.4623 20.4286 17.6816 21.6479 19.1856 21.6479Z" fill="#D4060E"/>
<path d="M129.781 36.5768C129.791 36.2895 129.858 36.0071 129.98 35.7465C129.98 35.7465 129.98 35.5971 130.362 35.7465C130.362 35.7465 130.943 35.8794 131.242 37.075C131.242 37.075 131.508 38.3038 130.843 38.4034H129.033C128.925 38.0916 128.925 37.7521 129.033 37.4403H130.528C130.528 37.4403 130.744 37.3407 130.528 37.1082C130.322 36.8562 130.068 36.6474 129.781 36.4938V36.5768ZM156.549 34.1191C156.507 34.2667 156.523 34.4248 156.594 34.5608C156.665 34.6969 156.786 34.8003 156.931 34.8498C156.931 34.8498 157.911 35.2815 157.463 35.3812C157.224 35.6379 157.073 35.9634 157.031 36.3111C157.01 36.4988 157.01 36.6881 157.031 36.8757C157.146 37.3997 157.069 37.9477 156.815 38.4201H154.49C154.49 38.4201 154.224 38.2374 154.158 38.2374H154.009C154.009 38.2374 153.926 38.2374 153.892 38.4533H151.003C151.003 38.4533 151.003 38.2374 150.82 38.4533H149.293C149.293 38.4533 149.176 38.2208 149.01 38.4533C148.974 38.4779 148.945 38.5125 148.927 38.5529H147.516C147.407 38.4753 147.307 38.3863 147.217 38.2872C147.217 38.2872 147.101 38.1045 147.034 38.2872C146.997 38.3206 146.967 38.3615 146.947 38.4074C146.927 38.4532 146.917 38.5029 146.918 38.5529H143.929C143.929 38.5529 143.165 38.3702 143.53 36.8923C143.55 36.7614 143.599 36.6367 143.674 36.5275C143.749 36.4182 143.847 36.3272 143.962 36.2613C143.962 36.2613 144.095 36.1451 143.962 36.3941C143.829 36.6432 143.58 37.3075 144.195 37.623H146.968V37.2576C146.976 37.0087 147.076 36.7718 147.25 36.5934C147.374 36.4452 147.52 36.3164 147.682 36.2115V37.4237C147.675 37.4652 147.683 37.5077 147.704 37.544C147.726 37.5803 147.759 37.6082 147.798 37.623H149.16V37.1912C149.156 37.0391 149.195 36.8889 149.271 36.7571C149.347 36.6253 149.458 36.517 149.591 36.444H149.691C149.699 36.8724 149.666 37.3006 149.591 37.7226H150.737C150.709 37.5745 150.709 37.4224 150.737 37.2742C150.788 36.9866 150.942 36.7272 151.169 36.5436C151.169 36.5436 151.285 36.4273 151.285 36.5436V37.6562H151.883V36.9753C151.986 36.7969 152.115 36.6346 152.265 36.4938C152.265 36.4938 152.398 36.2613 152.398 36.4938V37.6396H154.058V37.0086C154.057 36.9057 154.083 36.8043 154.132 36.7141C154.181 36.6239 154.253 36.548 154.341 36.4938C154.343 36.4514 154.359 36.4108 154.385 36.3779C154.412 36.3451 154.449 36.3217 154.49 36.3111C154.64 36.3111 154.606 36.1783 154.606 36.3111V37.5898H156.267C156.267 37.5898 156.499 37.4735 156.267 36.61C156.213 36.1574 156.029 35.7303 155.736 35.3812C155.879 34.9474 156.098 34.5426 156.383 34.1856L156.549 34.1191ZM109.002 34.7385L109.507 34.2337L110.011 34.7385L109.507 35.2434L109.002 34.7385Z" fill="#D4060E"/>
<path d="M109.734 34.7369L110.241 34.2321L110.745 34.7369L110.241 35.2417L109.734 34.7369ZM114.57 35.1321L115.051 34.6339L115.566 35.1321L115.051 35.6303L114.57 35.1321Z" fill="#D4060E"/>
<path d="M116.296 35.1317L115.798 34.6335L115.283 35.1317L115.798 35.6299L116.296 35.1317ZM144.975 35.6166L145.484 35.1184L145.983 35.6282L145.473 36.1264L144.975 35.6166Z" fill="#D4060E"/>
<path d="M146.685 35.6133L146.187 35.1151L145.689 35.6133L146.187 36.1281L146.685 35.6133ZM153.078 39.4609L153.582 38.956L154.086 39.4609L153.582 39.9657L153.078 39.4609Z" fill="#D4060E"/>
<path d="M153.809 39.4428L154.314 38.938L154.819 39.4428L154.314 39.9476L153.809 39.4428ZM135.712 39.4694L136.224 38.9712L136.722 39.4827L136.212 39.9808L135.712 39.4694ZM112.685 39.4511L113.19 38.9463L113.695 39.4511L113.19 39.9559L112.685 39.4511Z" fill="#D4060E"/>
<path d="M141.604 38.2371L141.986 38.3699C142.004 38.3885 142.026 38.4033 142.051 38.4133C142.075 38.4234 142.101 38.4285 142.127 38.4285C142.153 38.4285 142.179 38.4234 142.203 38.4133C142.228 38.4033 142.25 38.3885 142.268 38.3699C142.409 38.1918 142.526 37.9965 142.617 37.7887C142.717 37.5439 142.717 37.2697 142.617 37.0249C142.529 36.792 142.457 36.5534 142.401 36.3108C142.388 36.25 142.36 36.1936 142.318 36.1476C142.276 36.1015 142.223 36.0674 142.164 36.0488C142.105 36.0301 142.042 36.0277 141.981 36.0416C141.921 36.0556 141.865 36.0855 141.82 36.1282H141.604V36.9086C141.657 36.9178 141.707 36.9412 141.748 36.9762C141.788 37.0113 141.819 37.0568 141.836 37.1079C141.836 37.1079 141.836 37.2906 141.687 37.2241H141.604V38.2371ZM140.641 38.1375V37.988H140.973L141.537 38.2703V37.2574L141.288 37.0747C141.369 37.044 141.457 37.044 141.537 37.0747V36.2942C141.288 36.399 141.063 36.553 140.874 36.7471C140.686 36.9411 140.539 37.1711 140.441 37.4234C140.441 37.4234 140.441 37.6891 140.043 37.7057H138.781C138.781 37.7057 138.515 37.7057 138.648 37.4732C138.715 37.3732 138.761 37.26 138.781 37.1411C138.781 37.1411 138.947 36.9917 138.598 36.9917H138.067C137.793 37.0252 137.517 36.9605 137.286 36.809C137.286 36.809 136.888 36.6263 136.439 36.4769C136.255 36.3721 136.046 36.317 135.833 36.317C135.621 36.317 135.412 36.3721 135.227 36.4769C134.931 36.7263 134.703 37.0461 134.563 37.4068C134.563 37.4068 134.463 37.6393 134.663 37.4068C134.862 37.1743 134.912 37.0249 135.676 37.1743C135.844 37.2477 136.024 37.2926 136.207 37.3072C136.207 37.3072 136.506 37.4068 136.207 37.523C136.115 37.4958 136.017 37.4958 135.925 37.523H133.799C133.482 37.3477 133.232 37.0736 133.085 36.7426C133.085 36.7426 132.902 36.3606 132.786 36.5599L132.404 37.2241C132.404 37.2241 132.321 37.2241 132.404 37.4068L132.836 37.9548C132.836 37.9548 132.985 38.1375 132.836 38.2371C132.452 38.6684 132.004 39.0381 131.508 39.3331C131.255 39.4244 130.979 39.4244 130.727 39.3331C130.727 39.3331 130.395 39.1006 130.279 39.3331C130.162 39.5656 130.113 39.4659 130.428 39.632C130.73 39.8349 131.06 39.9916 131.408 40.0969C131.565 40.1842 131.743 40.2299 131.923 40.2299C132.103 40.2299 132.28 40.1842 132.437 40.0969C132.945 39.7351 133.31 39.206 133.467 38.6024H135.593C135.738 38.653 135.896 38.653 136.041 38.6024C136.18 38.5385 136.308 38.4546 136.423 38.3533C136.423 38.3533 136.423 38.2205 136.838 38.2039H137.785C137.785 38.2039 138.017 38.2039 138 38.3865V38.6024H140.259C140.313 38.4766 140.406 38.3717 140.525 38.3035L140.641 38.1375ZM140.724 34.3347V34.7831L140.558 34.6834L140.358 34.5506V34.0026L140.491 34.1022V33.9362C140.513 33.8772 140.513 33.8125 140.491 33.7535H140.392V33.3882H140.525C140.74 33.3882 140.84 33.521 140.84 33.7867V34.2517H140.94L140.724 34.3347ZM140.242 34.6336C140.127 34.7826 139.999 34.9215 139.86 35.0488C139.739 35.1661 139.58 35.2367 139.412 35.248H139.146L139.395 35.0986L139.611 34.9159C139.78 34.7817 139.941 34.6375 140.093 34.4842L139.943 34.2351C139.925 34.17 139.925 34.101 139.943 34.0358C139.959 33.859 140.016 33.6883 140.109 33.5376C140.143 33.4653 140.195 33.4025 140.259 33.355V33.7203H140.176C140.159 33.7688 140.159 33.8213 140.176 33.8698H140.259L140.242 34.6336ZM126.659 36.2278C126.808 36.2278 127.339 35.8459 127.472 36.2278C127.553 36.5563 127.659 36.8783 127.788 37.1909C127.821 37.2234 127.847 37.2622 127.865 37.3049C127.883 37.3477 127.892 37.3936 127.892 37.44C127.892 37.4864 127.883 37.5323 127.865 37.5751C127.847 37.6179 127.821 37.6566 127.788 37.6891C127.655 37.8674 127.559 38.0707 127.506 38.2869C127.333 38.3451 127.146 38.3451 126.974 38.2869L126.659 38.1042V37.1411H126.775C127.057 37.1411 126.875 36.9584 126.875 36.9584C126.851 36.9232 126.818 36.8942 126.781 36.8739C126.743 36.8537 126.701 36.8428 126.659 36.8422V36.2278ZM125.496 37.5396C125.561 37.2465 125.698 36.9743 125.896 36.748C126.093 36.5217 126.344 36.3485 126.625 36.2444V36.9584H126.493C126.16 37.0581 126.493 37.1411 126.493 37.1411H126.659V38.1042C126.449 38.0236 126.232 37.9624 126.011 37.9216C126.011 37.9216 125.795 37.8053 125.662 38.0876L125.397 38.4198H123.736C123.736 38.4198 123.337 38.1042 123.337 38.4198V38.5194H116.197C116.197 38.5194 116.014 38.2039 115.798 38.4032C115.798 38.4384 115.784 38.4722 115.76 38.4971C115.735 38.522 115.701 38.536 115.666 38.536H113.856C113.856 38.536 113.424 38.1873 113.258 38.4198H111.149C111.073 38.3684 111.01 38.3021 110.961 38.2249C110.912 38.1478 110.88 38.0615 110.866 37.9714V37.8718C110.866 37.8718 110.866 37.7721 110.734 37.8718L110.451 38.2371V37.2574H110.783L110.667 36.7592C110.667 36.5765 110.485 36.7592 110.485 36.7592V36.0783C110.485 36.0783 110.617 36.0783 110.568 35.9289C110.518 35.7794 110.435 35.796 110.568 35.5469L110.966 35.0488C111.077 35.7019 111.16 36.3606 111.215 37.0249C111.215 37.0249 111.315 37.5729 111.481 37.5895H113.141C113.141 37.5895 113.291 37.5895 113.308 37.3072V36.9751L113.839 36.3938C113.839 36.3938 113.939 36.261 113.939 36.3938V37.4732C113.939 37.4732 113.939 37.6559 114.071 37.6559H115.732C115.732 37.6559 115.848 37.6559 115.832 37.4898V37.0415L116.396 36.3108C116.396 36.3108 116.496 36.178 116.479 36.3108V37.4068C116.479 37.4685 116.504 37.5276 116.547 37.5712C116.591 37.6148 116.65 37.6393 116.712 37.6393H122.59L122.673 37.4566L122.507 37.3238H117.642C117.642 37.3238 116.828 37.3238 117.21 36.6429C117.21 36.6429 117.841 35.3477 120.531 34.617L119.933 35.5303C119.344 35.6904 118.783 35.9426 118.273 36.2776C118.273 36.2776 117.874 36.4769 118.273 36.4769H122.906C123.067 36.5246 123.212 36.6168 123.324 36.7431C123.436 36.8694 123.509 37.0246 123.537 37.1909C123.537 37.1909 123.653 37.5729 123.786 37.6227H125.33L125.496 37.5396ZM110.551 38.1707C110.485 38.2324 110.402 38.2719 110.313 38.2838C110.223 38.2958 110.132 38.2794 110.053 38.2371C109.796 38.1077 109.508 38.0557 109.223 38.0876C109.223 38.0876 109.073 38.0876 109.09 37.8219C109.085 37.6207 109.123 37.4208 109.2 37.2349C109.277 37.049 109.392 36.8813 109.538 36.7426C109.761 36.5654 110 36.4097 110.252 36.2776H110.435V36.9086L110.285 37.0415C110.233 37.0657 110.187 37.1027 110.152 37.1491C110.117 37.1955 110.095 37.2498 110.086 37.3072H110.435L110.551 38.1707Z" fill="#D4060E"/>
<path d="M159.107 38.42C159.318 38.42 159.489 38.249 159.489 38.0381C159.489 37.8271 159.318 37.6561 159.107 37.6561C158.896 37.6561 158.725 37.8271 158.725 38.0381C158.725 38.249 158.896 38.42 159.107 38.42Z" fill="#D4060E"/>
<path d="M161.083 38.42C161.293 38.42 161.464 38.249 161.464 38.0381C161.464 37.8271 161.293 37.6561 161.083 37.6561C160.872 37.6561 160.701 37.8271 160.701 38.0381C160.701 38.249 160.872 38.42 161.083 38.42Z" fill="#D4060E"/>
<path d="M163.075 38.42C163.286 38.42 163.457 38.249 163.457 38.0381C163.457 37.8271 163.286 37.6561 163.075 37.6561C162.864 37.6561 162.693 37.8271 162.693 38.0381C162.693 38.249 162.864 38.42 163.075 38.42Z" fill="#D4060E"/>
<path d="M41.6204 29.6186V31.2792C41.6204 31.2792 45.5393 30.9305 46.1039 27.5097V18.4429H44.3603C44.3603 18.4429 44.4766 25.683 44.3603 27.1444C44.3105 27.0945 44.4434 28.9876 41.6204 29.6186ZM51.2019 20.336C52.1146 19.4194 53.2647 18.7753 54.5231 18.4761V30.9637H52.5138V27.8086H51.2019V25.8823H52.5138V22.0298C52.017 22.4286 51.5758 22.8921 51.2019 23.408V20.336ZM46.9508 30.9803C47.5486 25.1517 49.5247 22.0131 51.285 20.336V23.4246C50.7326 24.1804 50.2961 25.0144 49.9897 25.8989H51.285V27.8418H49.176C48.8379 28.86 48.6587 29.9242 48.6446 30.9969L46.9508 30.9803ZM58.824 18.4429C59.6231 18.696 60.3312 19.1762 60.862 19.8249C61.3927 20.4736 61.7232 21.2628 61.813 22.0962C61.8689 22.9746 61.6795 23.8513 61.2661 24.6283C60.8526 25.4054 60.2314 26.0522 59.4716 26.4967C59.6812 27.119 60.0337 27.6835 60.5009 28.1449C60.9681 28.6063 61.5369 28.9518 62.1618 29.1537V30.8142C60.8617 30.5852 59.6849 29.9027 58.8406 28.888V24.7199C59.2736 24.491 59.6245 24.133 59.8447 23.6955C60.0649 23.2581 60.1435 22.763 60.0694 22.2788C60.041 21.8874 59.9133 21.5097 59.6983 21.1813C59.4833 20.853 59.1881 20.5849 58.8406 20.4024L58.824 18.4429ZM55.8183 18.3101H57.7612C58.121 18.3331 58.4772 18.3943 58.824 18.4927V20.4688C58.4386 20.2936 58.0184 20.2084 57.5952 20.2197V25.2015C58.022 25.1949 58.4419 25.0928 58.824 24.9026V29.1703C58.4034 28.6718 58.0618 28.1118 57.811 27.5097H57.5786V31.0135H55.8183V18.3101ZM63.2245 18.1938H65.101V30.8973H63.2245V18.1938ZM69.6178 18.4429C70.4192 18.6971 71.129 19.1798 71.66 19.8318C72.191 20.4837 72.5201 21.2765 72.6068 22.1128C72.6518 22.9927 72.4502 23.8678 72.0248 24.6393C71.5994 25.4109 70.9671 26.0485 70.199 26.4801C70.4062 27.1037 70.7579 27.6694 71.2255 28.1312C71.693 28.5929 72.263 28.9376 72.8891 29.1371V30.8973C71.586 30.6767 70.4065 29.9926 69.568 28.971V24.7199C70.0023 24.4881 70.3538 24.1272 70.574 23.6869C70.7941 23.2466 70.872 22.7487 70.7968 22.2622C70.7657 21.8737 70.6367 21.4994 70.4218 21.1741C70.2069 20.8489 69.9132 20.5834 69.568 20.4024L69.6178 18.4429ZM66.5955 18.3101H68.5384C68.8919 18.329 69.2425 18.3847 69.5846 18.4761V20.4522C69.2238 20.2661 68.8276 20.1585 68.4222 20.1367V25.1184C68.8488 25.1108 69.2685 25.0087 69.651 24.8195V29.0872C69.2212 28.5923 68.8736 28.0317 68.6214 27.4267C68.4388 27.5263 68.389 27.4267 68.389 27.4267V30.9305H66.6121L66.5955 18.3101ZM106.383 19.8876C107.64 19.8876 108.846 20.3871 109.735 21.2762C110.625 22.1653 111.124 23.3712 111.124 24.6286C111.124 25.886 110.625 27.0918 109.735 27.9809C108.846 28.87 107.64 29.3695 106.383 29.3695V31.163C108.105 31.163 109.757 30.4789 110.974 29.2612C112.192 28.0436 112.876 26.3921 112.876 24.6701C112.876 22.9481 112.192 21.2966 110.974 20.0789C109.757 18.8613 108.105 18.1772 106.383 18.1772V19.8876ZM101.75 24.6203C101.748 23.9988 101.868 23.3829 102.104 22.8079C102.34 22.2329 102.687 21.7099 103.124 21.2689C103.562 20.8279 104.083 20.4775 104.656 20.2376C105.23 19.9977 105.845 19.8732 106.466 19.871V18.2104C104.744 18.2104 103.093 18.8945 101.875 20.1121C100.657 21.3298 99.9732 22.9813 99.9732 24.7033C99.9732 26.4253 100.657 28.0768 101.875 29.2945C103.093 30.5121 104.744 31.1962 106.466 31.1962V29.3529C105.215 29.3529 104.016 28.8561 103.131 27.9716C102.247 27.0872 101.75 25.8876 101.75 24.6369V24.6203ZM92.9324 19.788C94.1919 19.788 95.3999 20.2883 96.2906 21.179C97.1813 22.0697 97.6816 23.2777 97.6816 24.5372C97.6816 25.7968 97.1813 27.0048 96.2906 27.8955C95.3999 28.7861 94.1919 29.2865 92.9324 29.2865V31.0799C94.5998 30.9956 96.171 30.2739 97.3214 29.0639C98.4717 27.854 99.1132 26.2483 99.1132 24.5788C99.1132 22.9092 98.4717 21.3035 97.3214 20.0936C96.171 18.8836 94.5998 18.1619 92.9324 18.0776V19.788ZM88.2163 24.5538C88.2119 23.9323 88.33 23.3161 88.5638 22.7402C88.7976 22.1643 89.1426 21.6401 89.579 21.1976C90.0153 20.755 90.5346 20.4028 91.1072 20.1609C91.6797 19.919 92.2943 19.7923 92.9158 19.788V18.1274C91.2484 18.2117 89.6771 18.9334 88.5268 20.1434C87.3764 21.3533 86.735 22.959 86.735 24.6286C86.735 26.2981 87.3764 27.9038 88.5268 29.1138C89.6771 30.3237 91.2484 31.0455 92.9158 31.1297V29.3031C91.6606 29.3031 90.4568 28.8045 89.5693 27.9169C88.6817 27.0294 88.1831 25.8256 88.1831 24.5704L88.2163 24.5538ZM115.898 26.7458V30.8308H114.121V18.4429H115.782V23.6737C115.782 23.6737 118.522 23.4246 119.352 18.4429H121.013C121.013 18.4429 121.544 22.1128 117.326 25.0852C117.326 25.0852 119.219 29.0872 121.362 29.1537V30.8142C120.204 30.643 119.112 30.1689 118.196 29.4398C117.28 28.7108 116.574 27.7528 116.147 26.6628L115.898 26.7458ZM122.839 28.2735L122.673 30.15C123.414 30.7167 124.333 30.9994 125.264 30.9471C126.051 30.8894 126.803 30.5973 127.423 30.1084C128.042 29.6195 128.502 28.9563 128.741 28.2042C128.98 27.452 128.989 26.6454 128.766 25.8883C128.543 25.1311 128.098 24.4581 127.489 23.956C126.62 23.5378 125.787 23.0491 124.998 22.4947C124.998 22.4947 123.338 21.0998 125.729 19.9208C126.067 19.8573 126.415 19.869 126.748 19.9551C127.08 20.0412 127.39 20.1996 127.655 20.419L127.888 18.609C127.888 18.609 127.041 17.4798 124.865 18.227C124.313 18.4109 123.818 18.7367 123.432 19.172C123.045 19.6072 122.779 20.1364 122.662 20.7067C122.544 21.2769 122.578 21.868 122.761 22.4209C122.944 22.9737 123.268 23.4688 123.703 23.8564C124.435 24.3973 125.233 24.8437 126.078 25.1849C126.461 25.3074 126.788 25.5653 126.995 25.9106C127.203 26.2558 127.278 26.6648 127.207 27.0613C127.169 27.468 127.019 27.8561 126.772 28.1818C126.526 28.5074 126.193 28.7578 125.812 28.9046C125.3 29.0167 124.77 29.0184 124.258 28.9096C123.745 28.8008 123.262 28.5839 122.839 28.2735ZM129.199 20.7843C129.877 20.2801 130.682 19.9752 131.524 19.9042V30.698H133.484V19.871C134.381 19.8834 135.241 20.2332 135.892 20.8507L136.406 19.1902C136.406 19.1902 135.892 18.0278 132.438 17.8119C130.985 17.8837 129.576 18.3361 128.353 19.1237L129.199 20.7843ZM152.813 18.3101C153.657 18.5517 154.405 19.0486 154.955 19.7324C155.505 20.4162 155.83 21.2535 155.885 22.1294C155.883 22.9761 155.659 23.8075 155.237 24.5414C154.814 25.2754 154.208 25.8864 153.477 26.3141C153.477 26.3141 153.245 27.5927 156.118 29.0374V30.698C154.825 30.5254 153.642 29.8807 152.796 28.888V24.4708C153.157 24.2474 153.454 23.9357 153.661 23.5652C153.867 23.1947 153.975 22.7776 153.975 22.3536C153.975 21.9295 153.867 21.5125 153.661 21.1419C153.454 20.7714 153.157 20.4597 152.796 20.2363L152.813 18.3101ZM149.907 30.6648V18.1108C150.92 17.9762 151.949 18.0554 152.929 18.3433V20.2529C152.558 20.0948 152.152 20.032 151.75 20.0703V24.9524C152.166 24.8806 152.565 24.7344 152.929 24.5206V28.9378C152.531 28.4929 152.196 27.9956 151.933 27.4599H151.75V30.781L149.907 30.6648ZM156.632 23.9062C156.542 25.685 157.161 27.427 158.353 28.7501C159.545 30.0731 161.214 30.8692 162.992 30.9637H163.441V29.2035C163.441 29.2035 159.173 29.2035 158.642 25.3509H163.441V23.5741H158.658C158.819 22.4429 159.401 21.4142 160.288 20.6937C161.174 19.9733 162.301 19.6142 163.441 19.6883V17.9281C161.76 17.8777 160.123 18.4667 158.859 19.5762C157.595 20.6856 156.8 22.233 156.632 23.9062ZM142.567 19.7382C143.19 19.7382 143.806 19.8608 144.381 20.099C144.957 20.3373 145.479 20.6865 145.92 21.1267C146.36 21.567 146.709 22.0896 146.947 22.6648C147.186 23.24 147.308 23.8565 147.308 24.4791C147.308 25.1017 147.186 25.7182 146.947 26.2934C146.709 26.8686 146.36 27.3912 145.92 27.8315C145.479 28.2717 144.957 28.6209 144.381 28.8592C143.806 29.0975 143.19 29.2201 142.567 29.2201V31.0135C144.289 31.0135 145.941 30.3294 147.158 29.1118C148.376 27.8941 149.06 26.2426 149.06 24.5206C149.06 22.7986 148.376 21.1471 147.158 19.9295C145.941 18.7118 144.289 18.0278 142.567 18.0278V19.7382ZM137.851 24.4874C137.849 23.8659 137.969 23.2501 138.205 22.675C138.441 22.1 138.788 21.5771 139.226 21.1361C139.663 20.695 140.184 20.3446 140.757 20.1048C141.331 19.8649 141.946 19.7403 142.567 19.7382V18.0776C140.845 18.0776 139.194 18.7616 137.976 19.9793C136.758 21.1969 136.074 22.8484 136.074 24.5704C136.074 26.2925 136.758 27.944 137.976 29.1616C139.194 30.3793 140.845 31.0633 142.567 31.0633V29.2201C141.315 29.2157 140.115 28.7151 139.231 27.8281C138.347 26.941 137.851 25.7397 137.851 24.4874ZM83.0021 18.8747C83.4818 19.0422 83.9207 19.3093 84.2898 19.6585C84.659 20.0076 84.9502 20.4309 85.1442 20.9006C85.3341 21.4842 85.4026 22.1006 85.3455 22.7117C85.2884 23.3228 85.1069 23.9158 84.8121 24.4542C85.1261 24.7443 85.3723 25.1 85.533 25.4961C85.6938 25.8923 85.7651 26.319 85.742 26.7458V27.2108C85.7245 27.545 85.6857 27.8778 85.6258 28.2071C85.4525 28.8457 85.1143 29.4274 84.645 29.8937C84.1757 30.3601 83.5919 30.6948 82.9523 30.8641V28.888C83.3581 28.6773 83.6873 28.3441 83.893 27.9357C84.0987 27.5273 84.1704 27.0645 84.0981 26.613C83.9526 25.9378 83.5546 25.3437 82.9855 24.9524V24.0391C83.232 23.8398 83.4293 23.5862 83.5618 23.2982C83.6943 23.0101 83.7585 22.6954 83.7493 22.3785C83.7482 22.0775 83.6788 21.7807 83.5465 21.5103C83.4142 21.24 83.2224 21.0031 82.9855 20.8175L83.0021 18.8747ZM80.1625 18.5425C81.1547 18.4459 82.1561 18.559 83.1017 18.8747V20.8341C82.7716 20.6122 82.3866 20.4857 81.9891 20.4688V29.2035C82.3784 29.1797 82.7579 29.0721 83.1017 28.888V30.8142C82.8515 30.8809 82.5959 30.9254 82.3378 30.9471C81.6358 30.9992 80.9309 30.9992 80.2289 30.9471V18.5425H80.1625ZM83.1017 24.0225C82.8689 24.2433 82.6128 24.4381 82.3378 24.6037C82.6093 24.6707 82.8675 24.783 83.1017 24.9358V24.0225ZM42.9322 13.0128C43.1318 13.7411 43.6026 14.3655 44.248 14.7577C44.8934 15.1498 45.6644 15.2801 46.4028 15.1217C47.2344 14.9185 47.9853 14.469 48.5571 13.8319C49.1289 13.1949 49.4951 12.4001 49.6078 11.5515H70.6141V5.02539H68.2063V8.72849H49.5579V7.48305H47.1003V11.5017C47.1003 11.5017 47.1003 14.5073 42.9322 13.0128Z" fill="#D4060E"/>
<path d="M60.2357 15.321C60.5344 15.2984 60.8201 15.1894 61.058 15.0073C61.2959 14.8252 61.4757 14.5778 61.5755 14.2953C61.6752 14.0129 61.6907 13.7074 61.6199 13.4163C61.5492 13.1252 61.3953 12.861 61.177 12.6558C60.9587 12.4506 60.6855 12.3133 60.3905 12.2607C60.0956 12.2081 59.7917 12.2424 59.516 12.3594C59.2402 12.4764 59.0044 12.6712 58.8373 12.9199C58.6703 13.1685 58.5792 13.4605 58.5751 13.76C58.5696 13.9751 58.6096 14.1889 58.6924 14.3875C58.7753 14.586 58.8992 14.7649 59.056 14.9122C59.2127 15.0596 59.3989 15.1722 59.6021 15.2426C59.8054 15.313 60.0213 15.3397 60.2357 15.321ZM63.5568 15.321C63.8556 15.2984 64.1413 15.1894 64.3792 15.0073C64.6171 14.8252 64.7969 14.5778 64.8966 14.2953C64.9964 14.0129 65.0119 13.7074 64.9411 13.4163C64.8704 13.1252 64.7165 12.861 64.4982 12.6558C64.2799 12.4506 64.0066 12.3133 63.7117 12.2607C63.4168 12.2081 63.1129 12.2424 62.8371 12.3594C62.5613 12.4764 62.3256 12.6712 62.1585 12.9199C61.9914 13.1685 61.9003 13.4605 61.8962 13.76C61.8933 13.9744 61.9351 14.187 62.0188 14.3843C62.1026 14.5817 62.2265 14.7594 62.3827 14.9063C62.5389 15.0531 62.724 15.1658 62.9261 15.2372C63.1283 15.3086 63.3431 15.3371 63.5568 15.321ZM100.488 8.72845H79.6645V7.41659H77.2068V11.8005C77.2068 11.8005 76.2603 14.4409 73.0388 12.3651C73.196 13.1406 73.6418 13.8274 74.2861 14.2867C74.9304 14.746 75.725 14.9436 76.5094 14.8394C77.3273 14.6986 78.0791 14.3007 78.6555 13.7034C79.2318 13.1062 79.6027 12.3407 79.7143 11.5182H104.357V8.84469H103.411C103.466 7.99583 103.238 7.15269 102.763 6.44678C102.289 5.74087 101.594 5.21188 100.787 4.94233C98.8106 4.63501 96.8655 4.15152 94.9751 3.49762C94.2777 3.10956 93.7025 2.53443 93.3145 1.83704C92.9654 2.37002 92.7906 2.99835 92.8144 3.63504C92.8382 4.27172 93.0594 4.88525 93.4473 5.39068C93.4473 5.39068 93.4473 6.32061 96.536 6.60291C97.7231 6.6922 98.8832 7.00192 99.9568 7.51623C99.9568 7.51623 100.654 8.03101 100.488 8.72845Z" fill="#D4060E"/>
<path d="M97.7648 15.3212C98.1701 15.3126 98.5562 15.1466 98.8413 14.8584C99.1265 14.5701 99.2883 14.1823 99.2925 13.7768C99.2925 13.3701 99.1321 12.9798 98.8461 12.6907C98.56 12.4015 98.1715 12.2369 97.7648 12.2325C97.3596 12.2325 96.971 12.3935 96.6845 12.68C96.398 12.9665 96.237 13.3551 96.237 13.7602C96.2348 13.963 96.2726 14.1643 96.3482 14.3525C96.4238 14.5407 96.5357 14.7122 96.6776 14.8571C96.8195 15.0021 96.9885 15.1177 97.175 15.1973C97.3616 15.2769 97.562 15.319 97.7648 15.3212ZM160.817 6.5367C161.39 6.5208 161.949 6.70669 162.399 7.06187C162.848 7.41704 163.158 7.91888 163.275 8.47958V11.4686H160.817V8.92794H161.249C161.229 8.80339 161.18 8.68546 161.104 8.58424C161.029 8.48303 160.931 8.40153 160.817 8.34674V6.5367ZM111.166 3.99601C112.171 3.51553 113.248 3.20147 114.354 3.06608V9.12721H121.411V5.70641H123.736V9.02758H127.938V5.49053H130.262V8.99436H150.455C150.455 8.99436 151.053 8.41316 150.306 8.13086H135.144L135.261 5.75623C136.02 5.13556 136.607 4.32981 136.965 3.41657C137.322 2.50333 137.439 1.51336 137.303 0.541998H139.429C139.441 2.3438 139.049 4.12544 138.283 5.75623H151.236C151.606 5.7951 151.965 5.91309 152.286 6.10222C152.607 6.29135 152.884 6.54723 153.099 6.85258C153.313 7.15793 153.459 7.50564 153.527 7.87226C153.595 8.23887 153.584 8.61585 153.494 8.97776H157.961C157.963 8.65501 158.029 8.33585 158.154 8.03851C158.28 7.74116 158.463 7.47145 158.692 7.24478C158.922 7.0181 159.194 6.8389 159.493 6.71741C159.792 6.59592 160.112 6.53451 160.435 6.5367H160.817V8.47958H160.701C160.701 8.47958 160.535 8.47958 160.402 9.01097H160.817V11.4686H111.166V9.14382H112.245V6.10495C111.848 6.35651 111.486 6.65787 111.166 7.00166V3.99601ZM107.396 11.4686V10.3893C107.356 9.06806 107.695 7.76299 108.371 6.6275C109.048 5.492 110.035 4.57329 111.215 3.9794V7.00166C110.615 7.57329 110.233 8.33695 110.136 9.16042H111.215V11.4852L107.396 11.4686ZM107.18 3.26535C107.498 3.29797 107.817 3.23157 108.095 3.07526C108.373 2.91896 108.596 2.68041 108.733 2.39239C108.87 2.10438 108.914 1.78101 108.86 1.46672C108.806 1.15242 108.656 0.862615 108.43 0.637097C108.205 0.411578 107.915 0.261412 107.601 0.207224C107.286 0.153035 106.963 0.197483 106.675 0.334461C106.387 0.47144 106.148 0.69423 105.992 0.972232C105.836 1.25023 105.769 1.56981 105.802 1.88707C105.838 2.24023 105.995 2.57009 106.246 2.82113C106.497 3.07216 106.827 3.22904 107.18 3.26535ZM110.966 3.26535C111.272 3.26862 111.571 3.18125 111.827 3.01429C112.083 2.84733 112.283 2.60827 112.403 2.32736C112.523 2.04644 112.557 1.73628 112.501 1.4361C112.444 1.13591 112.3 0.859175 112.087 0.64089C111.873 0.422606 111.599 0.272573 111.3 0.209764C111.002 0.146955 110.691 0.17419 110.407 0.288026C110.124 0.401861 109.881 0.597185 109.708 0.849298C109.536 1.10141 109.442 1.39899 109.439 1.70441C109.436 1.90721 109.474 2.10847 109.55 2.29668C109.625 2.48489 109.737 2.65636 109.879 2.80131C110.021 2.94626 110.19 3.06185 110.377 3.14147C110.563 3.22109 110.764 3.26318 110.966 3.26535Z" fill="#D4060E"/>
<path d="M126.111 3.26522C126.314 3.26526 126.516 3.22467 126.703 3.14583C126.891 3.06699 127.061 2.95147 127.203 2.80607C127.345 2.66067 127.457 2.48832 127.532 2.29911C127.607 2.10991 127.643 1.90767 127.638 1.70427C127.638 1.29754 127.478 0.90723 127.192 0.618082C126.906 0.328934 126.517 0.164299 126.111 0.159925C125.706 0.159925 125.317 0.320883 125.03 0.607389C124.744 0.893895 124.583 1.28248 124.583 1.68766C124.581 1.88611 124.618 2.08305 124.692 2.26722C124.766 2.4514 124.875 2.61922 125.014 2.76108C125.153 2.90295 125.318 3.01609 125.5 3.09404C125.683 3.17199 125.879 3.21323 126.077 3.2154L126.111 3.26522ZM130.312 3.26522C130.515 3.26526 130.717 3.22467 130.904 3.14583C131.092 3.06699 131.262 2.95147 131.404 2.80607C131.546 2.66067 131.658 2.48832 131.733 2.29911C131.808 2.10991 131.844 1.90767 131.84 1.70427C131.862 1.48913 131.839 1.2717 131.772 1.06604C131.705 0.860377 131.596 0.671082 131.451 0.510414C131.306 0.349746 131.129 0.221289 130.931 0.133362C130.734 0.0454349 130.52 0 130.304 0C130.087 0 129.873 0.0454349 129.676 0.133362C129.478 0.221289 129.301 0.349746 129.157 0.510414C129.012 0.671082 128.902 0.860377 128.835 1.06604C128.768 1.2717 128.745 1.48913 128.768 1.70427C128.768 2.10945 128.929 2.49803 129.215 2.78454C129.502 3.07105 129.89 3.232 130.295 3.232L130.312 3.26522ZM122.507 15.321C122.913 15.3124 123.299 15.1465 123.584 14.8582C123.869 14.57 124.031 14.1821 124.035 13.7767C124.035 13.4713 123.944 13.1727 123.775 12.9187C123.605 12.6647 123.364 12.4668 123.082 12.3499C122.799 12.233 122.489 12.2024 122.189 12.262C121.89 12.3216 121.615 12.4687 121.399 12.6847C121.183 12.9007 121.036 13.1758 120.976 13.4754C120.916 13.775 120.947 14.0855 121.064 14.3677C121.181 14.6499 121.379 14.8911 121.633 15.0608C121.887 15.2305 122.185 15.321 122.491 15.321H122.507Z" fill="#D4060E"/>
<path d="M43.4299 38.4033C43.65 38.4033 43.8285 38.2249 43.8285 38.0047C43.8285 37.7846 43.65 37.6062 43.4299 37.6062C43.2098 37.6062 43.0314 37.7846 43.0314 38.0047C43.0314 38.2249 43.2098 38.4033 43.4299 38.4033Z" fill="#D4060E"/>
<path d="M45.2402 38.4033C45.4603 38.4033 45.6388 38.2249 45.6388 38.0047C45.6388 37.7846 45.4603 37.6062 45.2402 37.6062C45.0201 37.6062 44.8417 37.7846 44.8417 38.0047C44.8417 38.2249 45.0201 38.4033 45.2402 38.4033Z" fill="#D4060E"/>
<path d="M47.067 38.4033C47.2871 38.4033 47.4655 38.2249 47.4655 38.0047C47.4655 37.7846 47.2871 37.6062 47.067 37.6062C46.8469 37.6062 46.6685 37.7846 46.6685 38.0047C46.6685 38.2249 46.8469 38.4033 47.067 38.4033Z" fill="#D4060E"/>
<path d="M96.7685 38.3701V37.9217C96.8901 37.928 97.0094 37.8862 97.1006 37.8055C97.1414 37.7678 97.1731 37.7213 97.1933 37.6695C97.2134 37.6177 97.2215 37.562 97.2168 37.5066H97.8977C97.8915 37.6296 97.8586 37.7498 97.8013 37.8588C97.7439 37.9677 97.6635 38.0629 97.5655 38.1376C97.3331 38.3016 97.0526 38.3834 96.7685 38.3701ZM96.7685 37.1911V36.7261H97.2666C97.266 36.5872 97.2318 36.4505 97.167 36.3276C97.128 36.2584 97.0692 36.2025 96.9982 36.167C96.9272 36.1315 96.8472 36.118 96.7685 36.1283V35.6799C96.9302 35.6709 97.0921 35.6958 97.2436 35.753C97.3952 35.8102 97.5331 35.8984 97.6486 36.0121C97.8583 36.3063 97.9582 36.6647 97.9309 37.025V37.1911H96.7685ZM96.7685 35.6799V36.1283C96.6865 36.1233 96.6049 36.1427 96.5339 36.1841C96.463 36.2255 96.4059 36.287 96.3699 36.3608C96.3085 36.48 96.2691 36.6094 96.2537 36.7427H96.7685V37.2077H96.2703C96.2682 37.3933 96.3139 37.5763 96.4031 37.7391C96.441 37.8054 96.4972 37.8594 96.5649 37.8948C96.6326 37.9301 96.709 37.9452 96.7851 37.9383V38.3701C96.6218 38.3803 96.4582 38.3543 96.3061 38.294C96.154 38.2337 96.017 38.1406 95.905 38.0214C95.6802 37.7461 95.5676 37.3963 95.5895 37.0416C95.5705 36.6845 95.6894 36.3338 95.9216 36.0619C96.0263 35.936 96.1588 35.836 96.3086 35.7697C96.4584 35.7035 96.6214 35.6728 96.7851 35.6799H96.7685ZM92.0026 38.3701V37.9217C92.091 37.9248 92.1787 37.905 92.2572 37.8643C92.3358 37.8235 92.4025 37.7633 92.451 37.6892C92.5632 37.4867 92.6151 37.2562 92.6004 37.025C92.6173 36.7884 92.5654 36.5519 92.451 36.3442C92.4037 36.269 92.3373 36.2078 92.2584 36.1669C92.1796 36.126 92.0913 36.107 92.0026 36.1117V35.6633C92.1761 35.6512 92.3501 35.676 92.5133 35.7361C92.6765 35.7962 92.825 35.8903 92.9491 36.0121C93.1854 36.2882 93.3046 36.6457 93.2812 37.0084C93.3037 37.366 93.1844 37.718 92.9491 37.9882C92.825 38.1099 92.6765 38.204 92.5133 38.2641C92.3501 38.3242 92.1761 38.349 92.0026 38.3369V38.3701ZM93.8292 35.7464H94.4935V36.1781V36.0453C94.5575 35.9308 94.6517 35.8361 94.766 35.7717C94.8802 35.7072 95.01 35.6755 95.1411 35.6799V36.3276C95.0474 36.3218 94.9535 36.335 94.8651 36.3664C94.7766 36.3978 94.6954 36.4467 94.6263 36.5102C94.5633 36.5763 94.5145 36.6546 94.4831 36.7403C94.4516 36.826 94.4382 36.9173 94.4437 37.0084V38.3701H93.7628L93.8292 35.7464ZM92.0026 35.7464V36.1947C91.9167 36.193 91.8318 36.2134 91.7561 36.2542C91.6805 36.2949 91.6166 36.3545 91.5708 36.4272C91.4572 36.6353 91.4054 36.8715 91.4214 37.108C91.4062 37.3427 91.4519 37.5772 91.5542 37.7889C91.6046 37.8598 91.6722 37.9168 91.7506 37.9546C91.829 37.9923 91.9157 38.0096 92.0026 38.0048V38.3701C91.8319 38.3799 91.661 38.3539 91.5008 38.2939C91.3407 38.2338 91.1949 38.141 91.0727 38.0214C90.8374 37.7512 90.7181 37.3992 90.7406 37.0416C90.7172 36.6789 90.8364 36.3214 91.0727 36.0453C91.1949 35.9256 91.3407 35.8328 91.5008 35.7728C91.661 35.7127 91.8319 35.6868 92.0026 35.6965V35.7464ZM81.6073 38.3701V37.9217C81.6933 37.9235 81.7782 37.903 81.8538 37.8623C81.9295 37.8216 81.9933 37.7619 82.0391 37.6892C82.1514 37.4867 82.2032 37.2562 82.1886 37.025C82.2055 36.7884 82.1536 36.5519 82.0391 36.3442C81.9933 36.2715 81.9295 36.2119 81.8538 36.1711C81.7782 36.1304 81.6933 36.1099 81.6073 36.1117V35.6633C81.7781 35.6536 81.949 35.6795 82.1091 35.7396C82.2692 35.7996 82.4151 35.8924 82.5373 36.0121C82.7736 36.2882 82.8927 36.6457 82.8694 37.0084C82.8919 37.366 82.7726 37.718 82.5373 37.9882C82.4151 38.1078 82.2692 38.2006 82.1091 38.2606C81.949 38.3207 81.7781 38.3467 81.6073 38.3369V38.3701ZM84.148 38.3701H83.4838V34.7168H84.1646V36.8423L84.9285 35.8128H85.709L84.8455 36.9254L85.7754 38.3701H84.9783L84.1646 37.0416V38.3701H84.148ZM87.5688 36.5767C87.5704 36.4737 87.535 36.3736 87.4692 36.2944C87.3725 36.2602 87.267 36.2602 87.1703 36.2944C87.078 36.2681 86.9803 36.2681 86.888 36.2944C86.853 36.3146 86.8238 36.3436 86.8034 36.3786C86.783 36.4135 86.7721 36.4532 86.7718 36.4936C86.7736 36.5274 86.7857 36.5598 86.8065 36.5865C86.8273 36.6133 86.8557 36.633 86.888 36.6431L87.2699 36.7759H87.6021C87.7994 36.8258 87.9817 36.9227 88.1334 37.0582C88.2405 37.1886 88.2939 37.3548 88.2829 37.5232C88.2866 37.6439 88.2595 37.7636 88.2044 37.8711C88.1492 37.9785 88.0676 38.0702 87.9674 38.1376C87.7361 38.304 87.4548 38.386 87.1703 38.3701C86.8806 38.3872 86.5936 38.3052 86.3566 38.1376C86.2589 38.0612 86.1808 37.9626 86.1289 37.8499C86.0769 37.7373 86.0525 37.6139 86.0577 37.49H86.805C86.7988 37.5505 86.8061 37.6116 86.8262 37.669C86.8463 37.7263 86.8787 37.7786 86.9212 37.8221C87.0124 37.9029 87.1317 37.9446 87.2533 37.9383C87.3615 37.9716 87.4772 37.9716 87.5854 37.9383C87.6251 37.9136 87.658 37.8794 87.6812 37.8388C87.7044 37.7983 87.7171 37.7526 87.7183 37.7059C87.7316 37.6773 87.7386 37.6461 87.7386 37.6145C87.7386 37.583 87.7316 37.5518 87.7183 37.5232C87.6312 37.4653 87.5361 37.4205 87.436 37.3903H87.1039C86.8747 37.3457 86.6589 37.2491 86.4729 37.108C86.4103 37.0451 86.3616 36.9697 86.3302 36.8867C86.2987 36.8038 86.2851 36.7151 86.2902 36.6265C86.2898 36.5173 86.317 36.4099 86.3693 36.3141C86.4215 36.2183 86.4971 36.1372 86.5891 36.0785C86.806 35.9228 87.0699 35.8466 87.3364 35.8626C87.6137 35.8416 87.8897 35.9179 88.1168 36.0785C88.2013 36.1384 88.2698 36.2183 88.3161 36.311C88.3625 36.4036 88.3853 36.5063 88.3825 36.6099L87.5688 36.5767ZM90.2424 38.3867H89.7442C89.6452 38.3961 89.5453 38.3847 89.4509 38.3532C89.3565 38.3218 89.2698 38.271 89.1962 38.204C89.0713 38.0373 89.0121 37.8304 89.0302 37.6228V36.2279H88.5652V35.7464H89.0302V35.3644L89.711 35.0157V35.7464H90.2424V36.2113H89.711V37.49C89.6782 37.6039 89.6782 37.7248 89.711 37.8387C89.7526 37.858 89.7979 37.868 89.8438 37.868C89.8897 37.868 89.9351 37.858 89.9767 37.8387H90.1261L90.2424 38.3867ZM81.5243 35.7464V36.1947C81.4356 36.19 81.3473 36.2091 81.2685 36.2499C81.1897 36.2908 81.1232 36.352 81.076 36.4272C80.9624 36.6353 80.9105 36.8715 80.9265 37.108C80.9096 37.3447 80.9615 37.5811 81.076 37.7889C81.1252 37.861 81.1926 37.9189 81.2713 37.9568C81.35 37.9947 81.4372 38.0112 81.5243 38.0048V38.3867C81.3509 38.3988 81.1768 38.374 81.0136 38.3139C80.8505 38.2538 80.7019 38.1598 80.5778 38.038C80.3425 37.7678 80.2232 37.4158 80.2457 37.0582C80.2223 36.6955 80.3415 36.338 80.5778 36.0619C80.7019 35.9401 80.8505 35.846 81.0136 35.7859C81.1768 35.7258 81.3509 35.701 81.5243 35.7132V35.7464ZM78.5021 38.3701V37.9217C78.5907 37.9265 78.6791 37.9074 78.7579 37.8665C78.8367 37.8256 78.9032 37.7644 78.9504 37.6892C79.0627 37.4867 79.1145 37.2562 79.0999 37.025C79.1168 36.7884 79.0649 36.5519 78.9504 36.3442C78.9032 36.269 78.8367 36.2078 78.7579 36.1669C78.6791 36.126 78.5907 36.107 78.5021 36.1117V35.6633C78.6755 35.6512 78.8496 35.676 79.0128 35.7361C79.1759 35.7962 79.3245 35.8903 79.4486 36.0121C79.6849 36.2882 79.804 36.6457 79.7807 37.0084C79.8032 37.366 79.6839 37.718 79.4486 37.9882C79.3274 38.1159 79.1802 38.2161 79.0169 38.282C78.8535 38.3479 78.678 38.378 78.5021 38.3701ZM78.5021 35.6965V36.1449C78.4162 36.1431 78.3313 36.1636 78.2556 36.2043C78.1799 36.2451 78.1161 36.3047 78.0703 36.3774C77.9567 36.5855 77.9049 36.8217 77.9209 37.0582C77.9039 37.2948 77.9558 37.5313 78.0703 37.7391C78.1169 37.8099 78.1814 37.8671 78.2572 37.905C78.333 37.9429 78.4175 37.9601 78.5021 37.9549V38.3701C78.3313 38.3799 78.1604 38.3539 78.0003 38.2939C77.8402 38.2338 77.6943 38.141 77.5721 38.0214C77.3368 37.7512 77.2175 37.3992 77.24 37.0416C77.2167 36.6789 77.3358 36.3214 77.5721 36.0453C77.6943 35.9256 77.8402 35.8328 78.0003 35.7728C78.1604 35.7127 78.3313 35.6868 78.5021 35.6965ZM75.3968 38.3701V37.7889C75.5774 37.7938 75.7558 37.7477 75.9115 37.656C75.9797 37.6148 76.0356 37.5561 76.0736 37.4861C76.1115 37.416 76.1301 37.3371 76.1274 37.2575C76.1294 37.1839 76.1138 37.1109 76.0821 37.0445C76.0503 36.9781 76.0033 36.9202 75.9448 36.8756C75.8017 36.7829 75.6335 36.7365 75.4632 36.7427V36.1615C75.5896 36.1488 75.7131 36.1151 75.8285 36.0619C75.8923 36.0343 75.9458 35.9874 75.9816 35.9279C76.0173 35.8683 76.0335 35.799 76.0278 35.7298C76.0338 35.6603 76.0198 35.5905 75.9874 35.5287C75.9551 35.4669 75.9057 35.4157 75.8451 35.381C75.7342 35.2991 75.601 35.2528 75.4632 35.2482V34.7168C75.7893 34.7012 76.1127 34.7821 76.3931 34.9493C76.4976 35.0281 76.581 35.1315 76.636 35.2503C76.691 35.369 76.716 35.4995 76.7086 35.6301C76.7155 35.7661 76.6852 35.9014 76.6208 36.0214C76.5564 36.1414 76.4605 36.2415 76.3433 36.311C76.2237 36.3785 76.0951 36.4288 75.9614 36.4604C76.1313 36.493 76.2942 36.5548 76.4429 36.6431C76.5746 36.7169 76.6832 36.8258 76.7565 36.9578C76.8299 37.0898 76.865 37.2395 76.8581 37.3903C76.8637 37.5331 76.8332 37.6749 76.7693 37.8026C76.7055 37.9304 76.6103 38.0399 76.4928 38.121C76.1809 38.318 75.8146 38.411 75.4466 38.3867L75.3968 38.3701ZM75.3968 34.7168V35.2814H74.8322V36.1947H75.3968V36.7095H74.8322V37.7557H75.3968V38.3701H74.0849V34.7168H75.3968ZM70.415 38.3701V37.9383C70.4792 37.9371 70.5424 37.9216 70.5998 37.8928C70.6573 37.8641 70.7076 37.8229 70.7471 37.7723C70.8478 37.6322 70.9002 37.4632 70.8966 37.2907V37.0914H70.415V36.7095H70.8966V36.5767C70.9027 36.5162 70.8955 36.4551 70.8754 36.3977C70.8553 36.3403 70.8229 36.288 70.7803 36.2445C70.6851 36.1726 70.5673 36.1373 70.4482 36.1449V35.6965C70.7545 35.6691 71.0606 35.7515 71.3117 35.929C71.411 36.0215 71.488 36.1353 71.5369 36.2619C71.5858 36.3885 71.6053 36.5245 71.594 36.6597V38.0712C71.6087 38.1708 71.6426 38.2667 71.6937 38.3535H71.046V38.1376C70.8993 38.2815 70.7035 38.3646 70.4981 38.3701H70.415ZM70.415 35.7132V36.1615C70.3296 36.1282 70.2348 36.1282 70.1493 36.1615C70.1131 36.1949 70.0853 36.2364 70.068 36.2825C70.0507 36.3287 70.0444 36.3782 70.0497 36.4272H69.3689C69.3681 36.3128 69.3931 36.1996 69.442 36.0962C69.4908 35.9927 69.5623 35.9015 69.6512 35.8294C69.8807 35.6909 70.1476 35.6271 70.415 35.6467V35.7132ZM70.415 36.6929V37.1246C70.314 37.1334 70.2168 37.1677 70.1327 37.2243C70.0703 37.2623 70.019 37.316 69.984 37.3802C69.949 37.4443 69.9316 37.5166 69.9335 37.5896C69.9302 37.64 69.939 37.6904 69.9592 37.7366C69.9795 37.7828 70.0105 37.8235 70.0497 37.8553C70.1391 37.9261 70.2514 37.9615 70.3652 37.9549V38.3701C70.0815 38.4263 69.787 38.3792 69.5349 38.2372C69.4555 38.1636 69.3935 38.0733 69.3533 37.9728C69.3131 37.8723 69.2957 37.7641 69.3024 37.656C69.2954 37.5237 69.3222 37.3917 69.3804 37.2726C69.4385 37.1535 69.5259 37.0511 69.6345 36.9752C69.886 36.8259 70.1724 36.7458 70.4648 36.7427L70.415 36.6929ZM53.2446 38.3535V37.9051C53.3305 37.9069 53.4154 37.8864 53.4911 37.8457C53.5667 37.8049 53.6305 37.7453 53.6763 37.6726C53.7886 37.4701 53.8405 37.2396 53.8258 37.0084C53.8427 36.7718 53.7908 36.5353 53.6763 36.3276C53.6305 36.2549 53.5667 36.1953 53.4911 36.1545C53.4154 36.1138 53.3305 36.0933 53.2446 36.0951V35.6467C53.4153 35.6369 53.5862 35.6629 53.7464 35.723C53.9065 35.783 54.0523 35.8758 54.1745 35.9955C54.4108 36.2716 54.53 36.6291 54.5066 36.9918C54.5291 37.3494 54.4098 37.7014 54.1745 37.9715C54.0523 38.0912 53.9065 38.184 53.7464 38.244C53.5862 38.3041 53.4153 38.33 53.2446 38.3203V38.3535ZM56.5658 38.3535H56.0676C55.9686 38.3629 55.8687 38.3515 55.7743 38.32C55.6799 38.2886 55.5932 38.2378 55.5196 38.1708C55.3946 38.0041 55.3355 37.7972 55.3535 37.5896V36.1947H54.8886V35.7464H55.3535V35.3644L56.0344 35.0157V35.7464H56.5658V36.2113H56.0344V37.49C56.0016 37.6039 56.0016 37.7248 56.0344 37.8387C56.076 37.858 56.1213 37.868 56.1672 37.868C56.2131 37.868 56.2584 37.858 56.3001 37.8387H56.4827V38.2871L56.5658 38.3535ZM58.7577 35.7796H59.4386V38.5694C59.4552 38.7794 59.3898 38.9878 59.2559 39.1506C59.0799 39.2837 58.8616 39.3486 58.6415 39.3332H58.2596V38.9015H58.5751C58.6657 38.9375 58.7667 38.9375 58.8574 38.9015C58.875 38.8653 58.8841 38.8255 58.8841 38.7852C58.8841 38.745 58.875 38.7052 58.8574 38.669V35.8128L58.7577 35.7796ZM58.7577 34.6836H59.505V35.3644H58.7577V34.7002V34.6836ZM60.7504 37.2741C60.7442 37.4445 60.7906 37.6126 60.8833 37.7557C60.9191 37.8113 60.9682 37.8571 61.0262 37.889C61.0842 37.9209 61.1492 37.9379 61.2154 37.9383C61.2957 37.9424 61.3758 37.9263 61.4483 37.8915C61.5208 37.8567 61.5835 37.8043 61.6305 37.7391C61.7408 37.5848 61.7936 37.3968 61.78 37.2077V35.763H62.4608V38.3535H61.8962V37.9383C61.8667 37.9996 61.8274 38.0557 61.78 38.1044C61.6941 38.2094 61.5847 38.2926 61.4607 38.3474C61.3366 38.4023 61.2014 38.4271 61.0659 38.4199C60.9232 38.4605 60.7727 38.4651 60.6278 38.4332C60.4829 38.4013 60.3481 38.334 60.2357 38.2372C60.1002 37.995 60.0532 37.7132 60.1028 37.4402V35.8792H60.7836V37.3737L60.7504 37.2741ZM64.603 36.5767C64.6073 36.5252 64.6006 36.4735 64.5834 36.4248C64.5662 36.3762 64.5389 36.3317 64.5033 36.2944C64.4069 36.2588 64.3009 36.2588 64.2044 36.2944C64.1122 36.2681 64.0144 36.2681 63.9221 36.2944C63.8871 36.3146 63.8579 36.3436 63.8376 36.3786C63.8172 36.4135 63.8063 36.4532 63.8059 36.4936C63.8077 36.5274 63.8199 36.5598 63.8406 36.5865C63.8614 36.6133 63.8899 36.633 63.9221 36.6431L64.3041 36.7759H64.6362C64.8335 36.8258 65.0158 36.9227 65.1676 37.0582C65.2746 37.1886 65.3281 37.3548 65.317 37.5232C65.3207 37.6439 65.2937 37.7636 65.2385 37.8711C65.1833 37.9785 65.1018 38.0702 65.0015 38.1376C64.7702 38.304 64.4889 38.386 64.2044 38.3701C63.9147 38.3872 63.6277 38.3052 63.3908 38.1376C63.2931 38.0612 63.215 37.9626 63.163 37.8499C63.111 37.7373 63.0866 37.6139 63.0919 37.49H63.7561C63.75 37.5505 63.7572 37.6116 63.7773 37.669C63.7974 37.7263 63.8298 37.7786 63.8723 37.8221C63.9644 37.9013 64.083 37.9429 64.2044 37.9383C64.3126 37.9716 64.4284 37.9716 64.5366 37.9383C64.5762 37.9136 64.6091 37.8794 64.6323 37.8388C64.6555 37.7983 64.6682 37.7526 64.6694 37.7059C64.6828 37.6773 64.6897 37.6461 64.6897 37.6145C64.6897 37.583 64.6828 37.5518 64.6694 37.5232C64.5824 37.4653 64.4872 37.4205 64.3871 37.3903H64.055C63.8258 37.3457 63.61 37.2491 63.424 37.108C63.3614 37.0451 63.3127 36.9697 63.2813 36.8867C63.2498 36.8038 63.2362 36.7151 63.2413 36.6265C63.2409 36.5173 63.2681 36.4099 63.3204 36.3141C63.3726 36.2183 63.4482 36.1372 63.5402 36.0785C63.7571 35.9228 64.021 35.8466 64.2875 35.8626C64.5648 35.8416 64.8408 35.9179 65.0679 36.0785C65.1525 36.1384 65.2209 36.2183 65.2672 36.311C65.3136 36.4036 65.3364 36.5063 65.3336 36.6099L64.603 36.5767ZM67.2101 38.4033H66.7119C66.6129 38.4127 66.513 38.4013 66.4186 38.3699C66.3243 38.3384 66.2375 38.2876 66.1639 38.2206C66.0442 38.0514 65.9857 37.8464 65.9979 37.6394V36.2445H65.5329V35.7464H65.9979V35.3644L66.6787 35.0157V35.7464H67.2101V36.2113H66.6787V37.49C66.646 37.6039 66.646 37.7248 66.6787 37.8387C66.7229 37.8594 66.7711 37.8702 66.8199 37.8702C66.8687 37.8702 66.9168 37.8594 66.961 37.8387H67.1437L67.2101 38.4033ZM49.0931 35.8128H49.774V36.2279L49.8902 36.0453C49.9752 35.9456 50.0829 35.8678 50.2044 35.8187C50.3258 35.7695 50.4573 35.7504 50.5877 35.763C50.7126 35.7503 50.8388 35.7661 50.9567 35.8093C51.0746 35.8524 51.1812 35.9218 51.2685 36.0121C51.4364 36.2299 51.5191 36.5015 51.501 36.7759V38.4365H50.8201V36.7759C50.8281 36.626 50.7808 36.4783 50.6873 36.3608C50.6462 36.3132 50.5951 36.2751 50.5378 36.2493C50.4804 36.2235 50.4181 36.2105 50.3552 36.2113C50.2739 36.2054 50.1924 36.2189 50.1173 36.2507C50.0422 36.2824 49.9758 36.3315 49.9234 36.394C49.8255 36.5593 49.7792 36.7502 49.7906 36.942V38.4365H49.1097V35.8128H49.0931ZM53.311 35.8128V36.2611C53.2223 36.2564 53.134 36.2755 53.0552 36.3164C52.9764 36.3572 52.9099 36.4184 52.8627 36.4936C52.7491 36.7017 52.6972 36.9379 52.7132 37.1745C52.6963 37.4111 52.7482 37.6475 52.8627 37.8553C52.9119 37.9274 52.9793 37.9853 53.058 38.0232C53.1366 38.0611 53.2239 38.0777 53.311 38.0712V38.3701C53.1376 38.3822 52.9635 38.3574 52.8003 38.2973C52.6372 38.2372 52.4886 38.1431 52.3645 38.0214C52.1292 37.7512 52.0099 37.3992 52.0324 37.0416C52.009 36.6789 52.1282 36.3214 52.3645 36.0453C52.4886 35.9235 52.6372 35.8294 52.8003 35.7693C52.9635 35.7092 53.1376 35.6844 53.311 35.6965V35.8128Z" fill="#D4060E"/>
</svg>
