<svg width="49" height="31" viewBox="0 0 49 31" fill="none" xmlns="http://www.w3.org/2000/svg">
<mask id="path-1-outside-1" maskUnits="userSpaceOnUse" x="-0.0117188" y="-0.00537109" width="49" height="31" fill="black">
<rect fill="white" x="-0.0117188" y="-0.00537109" width="49" height="31"/>
<path d="M47.9997 21.4695C47.7932 22.0699 47.3342 22.2625 46.7261 22.2625C45.0278 22.2511 43.3296 22.2625 41.6313 22.2625C40.5871 22.2625 40.4036 22.1265 40.0823 21.1523C40.0364 21.0164 39.979 20.8804 39.9101 20.6879C39.4397 21.005 38.9922 21.2883 38.5561 21.5941C38.4758 21.6508 38.4299 21.8207 38.4414 21.934C38.5102 23.8371 37.3284 25.1738 35.4006 25.4117C35.24 25.4343 35.0334 25.559 34.9531 25.6949C34.2302 26.907 32.75 27.666 31.3501 27.4847C31.0747 27.4508 30.937 27.5301 30.7993 27.7453C29.9961 29.0933 28.2519 29.8636 26.9209 29.3879C26.8291 29.3539 26.7029 29.3652 26.6226 29.4105C25.1768 30.2941 23.708 30.0562 22.2737 29.4445C21.5508 29.1386 20.8393 28.7422 20.2197 28.2664C17.2134 25.9441 14.23 23.5879 11.2581 21.1976C10.5581 20.6425 9.98437 19.9402 9.36474 19.2945C9.26147 19.1925 9.2041 19.034 9.03198 18.9093C8.85986 20.2914 7.96484 20.3367 6.9436 20.314C5.38305 20.2687 3.82251 20.3027 2.26196 20.3027C1.32104 20.3027 0.988281 19.9742 0.988281 19.0453C0.999756 13.4605 0.999756 7.85309 0.999756 2.24567C0.999756 1.37341 1.38989 0.942937 2.18164 0.999577C4.90112 1.19216 7.60913 1.43005 10.2483 2.1777C10.8679 2.35895 11.4761 2.63083 12.0613 2.91403C12.635 3.19723 12.8645 3.67302 12.7153 4.30739C12.6809 4.46598 12.6809 4.63591 12.6465 4.86247C12.8301 4.86247 12.9792 4.86247 13.1284 4.86247C15.4348 4.86247 17.7527 4.8738 20.0591 4.85114C20.3115 4.85114 20.6099 4.74919 20.8049 4.60192C23.1113 2.84606 25.5898 2.64216 28.229 3.72966C30.0879 4.49997 31.9582 5.24762 33.8171 6.00661C33.9892 6.07458 34.1614 6.13122 34.2876 6.17653C34.3679 5.85934 34.3794 5.49684 34.5515 5.27028C34.7236 5.04372 35.0564 4.88512 35.3433 4.77184C37.6496 3.87692 40.0593 3.41247 42.5149 3.17458C43.9033 3.03864 45.2917 3.01598 46.6802 2.92536C47.3113 2.88005 47.7817 3.08395 47.9997 3.707C47.9997 9.63161 47.9997 15.5562 47.9997 21.4695ZM12.3137 6.81091C12.199 7.36598 12.1072 7.92106 11.958 8.45349C11.2351 11.1383 10.5007 13.8117 9.7893 16.4851C9.74341 16.655 9.76635 16.9269 9.86963 17.0402C10.7532 17.9691 11.6138 18.9093 12.5662 19.759C15.561 22.4664 18.7969 24.8679 22.0901 27.2015C22.6179 27.5754 23.3064 27.7566 23.9375 27.9605C24.2129 28.0511 24.5456 28.0172 24.9702 28.0511C24.821 27.8812 24.7637 27.8246 24.7178 27.7793C23.49 26.5332 22.2507 25.3097 21.0344 24.041C20.8164 23.8144 20.6558 23.4519 20.6213 23.1347C20.5754 22.7496 20.8623 22.4437 21.2295 22.3191C21.6196 22.1832 21.9868 22.2738 22.2852 22.5683C22.9163 23.2027 23.5244 23.8711 24.167 24.4941C25.1079 25.423 26.0603 26.3406 27.0356 27.2355C27.5061 27.666 27.9192 27.7226 28.4011 27.4054C28.7568 27.1789 29.0322 26.839 29.3535 26.5445C29.2388 26.4086 29.1929 26.3633 29.1584 26.3179C27.7815 24.9472 26.4045 23.5765 25.0276 22.1945C24.8899 22.0586 24.7522 21.9 24.6604 21.7414C24.2932 21.1183 24.7178 20.314 25.4521 20.348C25.7734 20.3593 26.1406 20.5859 26.3816 20.8125C27.8733 22.2511 29.3076 23.7238 30.7993 25.1511C31.5681 25.8988 32.8647 25.5816 33.2778 24.5734C33.2434 24.5281 33.209 24.4828 33.1631 24.4375C31.4304 22.7156 29.6863 20.9937 27.9536 19.2718C27.8044 19.1246 27.6553 18.9547 27.5635 18.7734C27.3684 18.4222 27.4258 18.0711 27.6897 17.7652C27.9307 17.4707 28.2634 17.3234 28.6191 17.4593C28.883 17.55 29.1355 17.7199 29.3306 17.9125C31.0976 19.6457 32.8533 21.4015 34.6203 23.1347C35.0334 23.5312 35.4121 23.5539 35.894 23.248C36.5251 22.8629 36.6743 22.2172 36.2727 21.5601C35.5039 20.2914 34.3909 19.3398 33.2778 18.3996C30.6846 16.2359 28.0798 14.0836 25.4636 11.9425C25.3489 11.8519 25.1079 11.8293 24.9473 11.8859C24.5112 12.0218 24.0981 12.2484 23.6621 12.3504C23.249 12.441 22.9622 12.6336 22.6868 12.9508C21.5164 14.2535 20.082 14.8992 18.2805 14.6613C16.2954 14.3894 15.2742 13.166 15.6758 11.2968C16.0085 9.69958 16.9036 8.38552 17.9477 7.17341C18.051 7.06012 18.1543 6.93552 18.292 6.78825C16.238 6.81091 14.2873 6.81091 12.3137 6.81091ZM37.5349 19.9289C37.8791 19.7023 38.2119 19.4871 38.5447 19.2718C39.3249 18.7621 39.3364 18.7508 39.0037 17.8785C37.9365 14.9898 36.8694 12.1011 35.7908 9.21247C35.7104 9.00856 35.5613 8.73669 35.3777 8.66872C32.532 7.52458 29.6863 6.39177 26.8291 5.30427C25.4521 4.78317 24.0522 4.85114 22.7786 5.64411C21.2639 6.58434 19.9558 7.7738 18.8657 9.16716C18.2576 9.9488 17.7642 10.7984 17.5806 11.784C17.5232 12.1238 17.5002 12.4636 17.9248 12.6222C18.751 12.9281 19.6001 12.9621 20.3345 12.4523C20.8164 12.1238 21.1836 11.648 21.6196 11.2515C21.8376 11.0476 22.0557 10.8097 22.3196 10.7078C23.1687 10.3906 24.0637 10.164 24.9128 9.83552C25.4521 9.63161 25.8652 9.69958 26.3013 10.0734C27.7241 11.2968 29.147 12.4976 30.5928 13.6871C32.968 15.6695 35.4809 17.516 37.5349 19.9289ZM36.6858 6.33512C36.9267 6.87887 37.1677 7.38864 37.3628 7.89841C38.8315 11.8972 40.2888 15.8961 41.7346 19.8949C41.8494 20.2008 41.9641 20.3367 42.2969 20.314C42.928 20.28 43.5476 20.3027 44.1787 20.3027C44.7868 20.3027 45.395 20.3027 46.0146 20.3027C46.0146 15.1371 46.0146 10.0168 46.0146 4.86247C42.8362 4.95309 39.738 5.37223 36.6858 6.33512ZM7.15014 18.3769C8.56152 13.7437 10.0073 9.16716 10.7417 4.34137C8.21728 3.49177 5.61255 3.25387 2.98486 2.99333C2.98486 8.14763 2.98486 13.2566 2.98486 18.3769C4.38476 18.3769 5.73877 18.3769 7.15014 18.3769Z"/>
</mask>
<path d="M47.9997 21.4695C47.7932 22.0699 47.3342 22.2625 46.7261 22.2625C45.0278 22.2511 43.3296 22.2625 41.6313 22.2625C40.5871 22.2625 40.4036 22.1265 40.0823 21.1523C40.0364 21.0164 39.979 20.8804 39.9101 20.6879C39.4397 21.005 38.9922 21.2883 38.5561 21.5941C38.4758 21.6508 38.4299 21.8207 38.4414 21.934C38.5102 23.8371 37.3284 25.1738 35.4006 25.4117C35.24 25.4343 35.0334 25.559 34.9531 25.6949C34.2302 26.907 32.75 27.666 31.3501 27.4847C31.0747 27.4508 30.937 27.5301 30.7993 27.7453C29.9961 29.0933 28.2519 29.8636 26.9209 29.3879C26.8291 29.3539 26.7029 29.3652 26.6226 29.4105C25.1768 30.2941 23.708 30.0562 22.2737 29.4445C21.5508 29.1386 20.8393 28.7422 20.2197 28.2664C17.2134 25.9441 14.23 23.5879 11.2581 21.1976C10.5581 20.6425 9.98437 19.9402 9.36474 19.2945C9.26147 19.1925 9.2041 19.034 9.03198 18.9093C8.85986 20.2914 7.96484 20.3367 6.9436 20.314C5.38305 20.2687 3.82251 20.3027 2.26196 20.3027C1.32104 20.3027 0.988281 19.9742 0.988281 19.0453C0.999756 13.4605 0.999756 7.85309 0.999756 2.24567C0.999756 1.37341 1.38989 0.942937 2.18164 0.999577C4.90112 1.19216 7.60913 1.43005 10.2483 2.1777C10.8679 2.35895 11.4761 2.63083 12.0613 2.91403C12.635 3.19723 12.8645 3.67302 12.7153 4.30739C12.6809 4.46598 12.6809 4.63591 12.6465 4.86247C12.8301 4.86247 12.9792 4.86247 13.1284 4.86247C15.4348 4.86247 17.7527 4.8738 20.0591 4.85114C20.3115 4.85114 20.6099 4.74919 20.8049 4.60192C23.1113 2.84606 25.5898 2.64216 28.229 3.72966C30.0879 4.49997 31.9582 5.24762 33.8171 6.00661C33.9892 6.07458 34.1614 6.13122 34.2876 6.17653C34.3679 5.85934 34.3794 5.49684 34.5515 5.27028C34.7236 5.04372 35.0564 4.88512 35.3433 4.77184C37.6496 3.87692 40.0593 3.41247 42.5149 3.17458C43.9033 3.03864 45.2917 3.01598 46.6802 2.92536C47.3113 2.88005 47.7817 3.08395 47.9997 3.707C47.9997 9.63161 47.9997 15.5562 47.9997 21.4695ZM12.3137 6.81091C12.199 7.36598 12.1072 7.92106 11.958 8.45349C11.2351 11.1383 10.5007 13.8117 9.7893 16.4851C9.74341 16.655 9.76635 16.9269 9.86963 17.0402C10.7532 17.9691 11.6138 18.9093 12.5662 19.759C15.561 22.4664 18.7969 24.8679 22.0901 27.2015C22.6179 27.5754 23.3064 27.7566 23.9375 27.9605C24.2129 28.0511 24.5456 28.0172 24.9702 28.0511C24.821 27.8812 24.7637 27.8246 24.7178 27.7793C23.49 26.5332 22.2507 25.3097 21.0344 24.041C20.8164 23.8144 20.6558 23.4519 20.6213 23.1347C20.5754 22.7496 20.8623 22.4437 21.2295 22.3191C21.6196 22.1832 21.9868 22.2738 22.2852 22.5683C22.9163 23.2027 23.5244 23.8711 24.167 24.4941C25.1079 25.423 26.0603 26.3406 27.0356 27.2355C27.5061 27.666 27.9192 27.7226 28.4011 27.4054C28.7568 27.1789 29.0322 26.839 29.3535 26.5445C29.2388 26.4086 29.1929 26.3633 29.1584 26.3179C27.7815 24.9472 26.4045 23.5765 25.0276 22.1945C24.8899 22.0586 24.7522 21.9 24.6604 21.7414C24.2932 21.1183 24.7178 20.314 25.4521 20.348C25.7734 20.3593 26.1406 20.5859 26.3816 20.8125C27.8733 22.2511 29.3076 23.7238 30.7993 25.1511C31.5681 25.8988 32.8647 25.5816 33.2778 24.5734C33.2434 24.5281 33.209 24.4828 33.1631 24.4375C31.4304 22.7156 29.6863 20.9937 27.9536 19.2718C27.8044 19.1246 27.6553 18.9547 27.5635 18.7734C27.3684 18.4222 27.4258 18.0711 27.6897 17.7652C27.9307 17.4707 28.2634 17.3234 28.6191 17.4593C28.883 17.55 29.1355 17.7199 29.3306 17.9125C31.0976 19.6457 32.8533 21.4015 34.6203 23.1347C35.0334 23.5312 35.4121 23.5539 35.894 23.248C36.5251 22.8629 36.6743 22.2172 36.2727 21.5601C35.5039 20.2914 34.3909 19.3398 33.2778 18.3996C30.6846 16.2359 28.0798 14.0836 25.4636 11.9425C25.3489 11.8519 25.1079 11.8293 24.9473 11.8859C24.5112 12.0218 24.0981 12.2484 23.6621 12.3504C23.249 12.441 22.9622 12.6336 22.6868 12.9508C21.5164 14.2535 20.082 14.8992 18.2805 14.6613C16.2954 14.3894 15.2742 13.166 15.6758 11.2968C16.0085 9.69958 16.9036 8.38552 17.9477 7.17341C18.051 7.06012 18.1543 6.93552 18.292 6.78825C16.238 6.81091 14.2873 6.81091 12.3137 6.81091ZM37.5349 19.9289C37.8791 19.7023 38.2119 19.4871 38.5447 19.2718C39.3249 18.7621 39.3364 18.7508 39.0037 17.8785C37.9365 14.9898 36.8694 12.1011 35.7908 9.21247C35.7104 9.00856 35.5613 8.73669 35.3777 8.66872C32.532 7.52458 29.6863 6.39177 26.8291 5.30427C25.4521 4.78317 24.0522 4.85114 22.7786 5.64411C21.2639 6.58434 19.9558 7.7738 18.8657 9.16716C18.2576 9.9488 17.7642 10.7984 17.5806 11.784C17.5232 12.1238 17.5002 12.4636 17.9248 12.6222C18.751 12.9281 19.6001 12.9621 20.3345 12.4523C20.8164 12.1238 21.1836 11.648 21.6196 11.2515C21.8376 11.0476 22.0557 10.8097 22.3196 10.7078C23.1687 10.3906 24.0637 10.164 24.9128 9.83552C25.4521 9.63161 25.8652 9.69958 26.3013 10.0734C27.7241 11.2968 29.147 12.4976 30.5928 13.6871C32.968 15.6695 35.4809 17.516 37.5349 19.9289ZM36.6858 6.33512C36.9267 6.87887 37.1677 7.38864 37.3628 7.89841C38.8315 11.8972 40.2888 15.8961 41.7346 19.8949C41.8494 20.2008 41.9641 20.3367 42.2969 20.314C42.928 20.28 43.5476 20.3027 44.1787 20.3027C44.7868 20.3027 45.395 20.3027 46.0146 20.3027C46.0146 15.1371 46.0146 10.0168 46.0146 4.86247C42.8362 4.95309 39.738 5.37223 36.6858 6.33512ZM7.15014 18.3769C8.56152 13.7437 10.0073 9.16716 10.7417 4.34137C8.21728 3.49177 5.61255 3.25387 2.98486 2.99333C2.98486 8.14763 2.98486 13.2566 2.98486 18.3769C4.38476 18.3769 5.73877 18.3769 7.15014 18.3769Z" fill="#4CA780"/>
<path d="M47.9997 21.4695C47.7932 22.0699 47.3342 22.2625 46.7261 22.2625C45.0278 22.2511 43.3296 22.2625 41.6313 22.2625C40.5871 22.2625 40.4036 22.1265 40.0823 21.1523C40.0364 21.0164 39.979 20.8804 39.9101 20.6879C39.4397 21.005 38.9922 21.2883 38.5561 21.5941C38.4758 21.6508 38.4299 21.8207 38.4414 21.934C38.5102 23.8371 37.3284 25.1738 35.4006 25.4117C35.24 25.4343 35.0334 25.559 34.9531 25.6949C34.2302 26.907 32.75 27.666 31.3501 27.4847C31.0747 27.4508 30.937 27.5301 30.7993 27.7453C29.9961 29.0933 28.2519 29.8636 26.9209 29.3879C26.8291 29.3539 26.7029 29.3652 26.6226 29.4105C25.1768 30.2941 23.708 30.0562 22.2737 29.4445C21.5508 29.1386 20.8393 28.7422 20.2197 28.2664C17.2134 25.9441 14.23 23.5879 11.2581 21.1976C10.5581 20.6425 9.98437 19.9402 9.36474 19.2945C9.26147 19.1925 9.2041 19.034 9.03198 18.9093C8.85986 20.2914 7.96484 20.3367 6.9436 20.314C5.38305 20.2687 3.82251 20.3027 2.26196 20.3027C1.32104 20.3027 0.988281 19.9742 0.988281 19.0453C0.999756 13.4605 0.999756 7.85309 0.999756 2.24567C0.999756 1.37341 1.38989 0.942937 2.18164 0.999577C4.90112 1.19216 7.60913 1.43005 10.2483 2.1777C10.8679 2.35895 11.4761 2.63083 12.0613 2.91403C12.635 3.19723 12.8645 3.67302 12.7153 4.30739C12.6809 4.46598 12.6809 4.63591 12.6465 4.86247C12.8301 4.86247 12.9792 4.86247 13.1284 4.86247C15.4348 4.86247 17.7527 4.8738 20.0591 4.85114C20.3115 4.85114 20.6099 4.74919 20.8049 4.60192C23.1113 2.84606 25.5898 2.64216 28.229 3.72966C30.0879 4.49997 31.9582 5.24762 33.8171 6.00661C33.9892 6.07458 34.1614 6.13122 34.2876 6.17653C34.3679 5.85934 34.3794 5.49684 34.5515 5.27028C34.7236 5.04372 35.0564 4.88512 35.3433 4.77184C37.6496 3.87692 40.0593 3.41247 42.5149 3.17458C43.9033 3.03864 45.2917 3.01598 46.6802 2.92536C47.3113 2.88005 47.7817 3.08395 47.9997 3.707C47.9997 9.63161 47.9997 15.5562 47.9997 21.4695ZM12.3137 6.81091C12.199 7.36598 12.1072 7.92106 11.958 8.45349C11.2351 11.1383 10.5007 13.8117 9.7893 16.4851C9.74341 16.655 9.76635 16.9269 9.86963 17.0402C10.7532 17.9691 11.6138 18.9093 12.5662 19.759C15.561 22.4664 18.7969 24.8679 22.0901 27.2015C22.6179 27.5754 23.3064 27.7566 23.9375 27.9605C24.2129 28.0511 24.5456 28.0172 24.9702 28.0511C24.821 27.8812 24.7637 27.8246 24.7178 27.7793C23.49 26.5332 22.2507 25.3097 21.0344 24.041C20.8164 23.8144 20.6558 23.4519 20.6213 23.1347C20.5754 22.7496 20.8623 22.4437 21.2295 22.3191C21.6196 22.1832 21.9868 22.2738 22.2852 22.5683C22.9163 23.2027 23.5244 23.8711 24.167 24.4941C25.1079 25.423 26.0603 26.3406 27.0356 27.2355C27.5061 27.666 27.9192 27.7226 28.4011 27.4054C28.7568 27.1789 29.0322 26.839 29.3535 26.5445C29.2388 26.4086 29.1929 26.3633 29.1584 26.3179C27.7815 24.9472 26.4045 23.5765 25.0276 22.1945C24.8899 22.0586 24.7522 21.9 24.6604 21.7414C24.2932 21.1183 24.7178 20.314 25.4521 20.348C25.7734 20.3593 26.1406 20.5859 26.3816 20.8125C27.8733 22.2511 29.3076 23.7238 30.7993 25.1511C31.5681 25.8988 32.8647 25.5816 33.2778 24.5734C33.2434 24.5281 33.209 24.4828 33.1631 24.4375C31.4304 22.7156 29.6863 20.9937 27.9536 19.2718C27.8044 19.1246 27.6553 18.9547 27.5635 18.7734C27.3684 18.4222 27.4258 18.0711 27.6897 17.7652C27.9307 17.4707 28.2634 17.3234 28.6191 17.4593C28.883 17.55 29.1355 17.7199 29.3306 17.9125C31.0976 19.6457 32.8533 21.4015 34.6203 23.1347C35.0334 23.5312 35.4121 23.5539 35.894 23.248C36.5251 22.8629 36.6743 22.2172 36.2727 21.5601C35.5039 20.2914 34.3909 19.3398 33.2778 18.3996C30.6846 16.2359 28.0798 14.0836 25.4636 11.9425C25.3489 11.8519 25.1079 11.8293 24.9473 11.8859C24.5112 12.0218 24.0981 12.2484 23.6621 12.3504C23.249 12.441 22.9622 12.6336 22.6868 12.9508C21.5164 14.2535 20.082 14.8992 18.2805 14.6613C16.2954 14.3894 15.2742 13.166 15.6758 11.2968C16.0085 9.69958 16.9036 8.38552 17.9477 7.17341C18.051 7.06012 18.1543 6.93552 18.292 6.78825C16.238 6.81091 14.2873 6.81091 12.3137 6.81091ZM37.5349 19.9289C37.8791 19.7023 38.2119 19.4871 38.5447 19.2718C39.3249 18.7621 39.3364 18.7508 39.0037 17.8785C37.9365 14.9898 36.8694 12.1011 35.7908 9.21247C35.7104 9.00856 35.5613 8.73669 35.3777 8.66872C32.532 7.52458 29.6863 6.39177 26.8291 5.30427C25.4521 4.78317 24.0522 4.85114 22.7786 5.64411C21.2639 6.58434 19.9558 7.7738 18.8657 9.16716C18.2576 9.9488 17.7642 10.7984 17.5806 11.784C17.5232 12.1238 17.5002 12.4636 17.9248 12.6222C18.751 12.9281 19.6001 12.9621 20.3345 12.4523C20.8164 12.1238 21.1836 11.648 21.6196 11.2515C21.8376 11.0476 22.0557 10.8097 22.3196 10.7078C23.1687 10.3906 24.0637 10.164 24.9128 9.83552C25.4521 9.63161 25.8652 9.69958 26.3013 10.0734C27.7241 11.2968 29.147 12.4976 30.5928 13.6871C32.968 15.6695 35.4809 17.516 37.5349 19.9289ZM36.6858 6.33512C36.9267 6.87887 37.1677 7.38864 37.3628 7.89841C38.8315 11.8972 40.2888 15.8961 41.7346 19.8949C41.8494 20.2008 41.9641 20.3367 42.2969 20.314C42.928 20.28 43.5476 20.3027 44.1787 20.3027C44.7868 20.3027 45.395 20.3027 46.0146 20.3027C46.0146 15.1371 46.0146 10.0168 46.0146 4.86247C42.8362 4.95309 39.738 5.37223 36.6858 6.33512ZM7.15014 18.3769C8.56152 13.7437 10.0073 9.16716 10.7417 4.34137C8.21728 3.49177 5.61255 3.25387 2.98486 2.99333C2.98486 8.14763 2.98486 13.2566 2.98486 18.3769C4.38476 18.3769 5.73877 18.3769 7.15014 18.3769Z" stroke="#4CA780" stroke-width="0.8" mask="url(#path-1-outside-1)"/>
</svg>
