<svg xmlns="http://www.w3.org/2000/svg" width="38.005" height="28.044" viewBox="0 0 38.005 28.044">
  <g id="Cantrol" transform="translate(-2534.998 -39)">
    <path id="Cantrol-2" data-name="Cantrol" d="M23.249,10.166h5m-17.5,0h5m-2.5-2.5v5M34.379,8.714l2.555,13.191a4.375,4.375,0,0,1-7.4,3.854l-6.751-7.494M26.377,2l-13.752.041a8.127,8.127,0,0,0-8,6.714h0L2.066,21.905a4.375,4.375,0,0,0,7.4,3.854l6.755-7.468,10.153-.041a8.125,8.125,0,1,0,0-16.25Z" transform="translate(2534.5 38.5)" fill="none" stroke="#4ca780" stroke-linecap="round" stroke-linejoin="round" stroke-width="3"/>
  </g>
</svg>
