<svg width="91" height="62" viewBox="0 0 91 62" fill="none" xmlns="http://www.w3.org/2000/svg">
<path d="M82.888 37.0807H76.8396L76.9352 40.977L81.8865 40.9207C83.8557 40.901 85.1076 40.8082 85.1076 42.5017V42.783C79.1577 42.9349 74.7522 44.516 74.7522 48.7695C74.7522 52.2326 77.6132 53.8895 82.9105 53.8895C86.0556 53.8895 88.6691 53.4197 90.177 52.6461V42.8787C90.177 38.3579 87.0149 37.0807 82.8936 37.0807H82.888ZM85.116 49.9173C84.5012 50.171 83.8398 50.2927 83.1749 50.2746C81.0875 50.2746 79.8638 49.8807 79.8638 48.6204C79.8638 45.9282 81.8949 46.2855 85.116 46.0238V49.9173ZM64.2477 38.0203V38.0147C66.1663 37.1679 69.7447 36.9063 74.3752 37.0554V40.9938C72.8758 40.8447 70.5352 40.8813 69.7813 41.202V53.7207H64.2477V38.0203ZM58.6045 33.5389V37.0807H62.3488V40.9376H58.6101V48.3307C58.6101 49.591 59.1193 50.2689 60.3233 50.2689C60.7038 50.2725 61.0827 50.2214 61.4486 50.117V53.4929C60.6069 53.8125 59.7129 53.9718 58.8126 53.9627C54.9923 53.9627 53.0709 51.6952 53.0709 49.1634V33.5389H58.6045ZM31.9663 47.1125L21.0061 47.1041C20.8205 49.6838 22.95 49.8723 24.9446 49.8723H30.2531L30.3487 53.7179H24.6436C18.795 53.6814 15.1378 51.6868 15.1378 45.3599C15.1378 40.1527 18.508 36.7769 23.7406 36.7769C30.5907 36.7769 31.9663 40.4847 31.9663 47.1125ZM20.8964 43.1741H26.9026C26.9026 40.9882 26.2246 40.1611 23.9459 40.1611C21.5181 40.1611 20.8964 41.6859 20.8964 43.1741ZM74.9829 8.63647H80.4039V30.7566H74.9829V8.63647ZM0 8.63647H5.3085V30.7566H0V8.63647ZM72.3976 24.1316H72.3948C72.3948 28.1432 69.8347 30.7594 65.1677 30.7594H14.4992C13.7256 34.8639 10.4876 37.2551 6.72354 37.4239V34.2422C8.52961 33.6767 9.33981 32.5289 9.33981 29.215V16.9213H14.668V26.278H18.6571V16.9213H24.1372V26.278H29.9802V16.9213H35.4012V26.278H38.884V16.9213H44.3444V26.278H47.7709V16.9213H53.2678V26.2752H64.6613C66.3183 26.2752 66.9597 25.3159 66.9597 24.0922V22.3592C66.9597 21.1552 66.3183 20.1762 64.6613 20.1762H62.1069L64.7794 16.2827C64.8891 16.2827 65.0973 16.2602 65.1705 16.2602C69.8376 16.2602 72.3976 18.6908 72.3976 22.6996V24.1316ZM18.4349 14.1447C17.0441 14.1078 15.9181 13.0027 15.8552 11.6128C15.9154 10.2218 17.0429 9.11517 18.4349 9.08096C19.8225 9.14228 20.9336 10.2533 20.9949 11.641C20.9094 13.0084 19.8038 14.0897 18.4349 14.1447ZM24.0387 14.1447L24.0303 14.1363C22.657 14.0776 21.5571 12.9777 21.4984 11.6044C21.5529 10.2285 22.6893 9.14402 24.0663 9.15389C25.4433 9.16377 26.564 10.2644 26.5988 11.641C26.5262 13.0142 25.4133 14.1027 24.0387 14.1447Z" fill="#1F66A5"/>
<path d="M25.7604 62L37.8543 45.0139L32.3207 37.0807H38.9514L41.2526 40.3272L46.2545 33.4264H52.5983L44.3387 44.8733L50.9779 53.7208H44.1249L40.9769 49.5319L32.2195 62H25.7604ZM69.8516 0H76.201L62.104 20.1762H55.6281L69.8516 0Z" fill="#FFE700"/>
</svg>
