<svg xmlns="http://www.w3.org/2000/svg" width="43.63" height="39.4" viewBox="0 0 43.63 39.4">
  <g id="Financing" transform="translate(-3367.25 70.9)">
    <path id="Path_181" data-name="Path 181" d="M46.982,47.143a2.926,2.926,0,0,0-3.168-.24l-7.5,4.089a1.73,1.73,0,0,1-.7.207l-2.941.23v-.022a3.01,3.01,0,0,0-2.905-3.014l-9.1-.354a3.139,3.139,0,0,0-2.438,1.021l-3.3,3.624a1.739,1.739,0,0,1-1.283.567H12.6v-1.5a.7.7,0,0,0-.7-.7H5.7a.7.7,0,0,0-.7.7V66.6a.7.7,0,0,0,.7.7h6.2a.7.7,0,0,0,.7-.7V65.193h6.268a3.135,3.135,0,0,0,.98-.157l14.62-4.817a3.123,3.123,0,0,0,.793-.394l11.609-7.972a2.906,2.906,0,0,0,.115-4.711ZM11.2,65.9H6.395V52.447H11.2V65.9Zm34.875-15.2L34.466,58.68a1.724,1.724,0,0,1-.439.218l-14.62,4.817a1.752,1.752,0,0,1-.544.087H12.6V54.642h1.064a3.138,3.138,0,0,0,2.316-1.024l3.3-3.624a1.747,1.747,0,0,1,1.35-.566l9.1.354a1.624,1.624,0,0,1,.134,3.236l-6.3.768a.7.7,0,1,0,.169,1.382l6.3-.768a3.026,3.026,0,0,0,2.284-1.547l3.423-.267a3.116,3.116,0,0,0,1.255-.373l7.5-4.089a1.525,1.525,0,0,1,1.652.125,1.517,1.517,0,0,1-.06,2.457Z" transform="translate(3362.5 -99.047)" fill="#4CA780" stroke="#4CA780" stroke-width="0.5"/>
    <g id="Group_6" data-name="Group 6" transform="translate(56.453 -39.2)">
      <g id="Path_182" data-name="Path 182" transform="translate(3288.759 -41.359)" fill="#4CA780">
        <path d="M 45.79776763916016 27.27864074707031 C 40.99518585205078 27.27864074707031 37.08799743652344 23.37143135070801 37.08799743652344 18.56882095336914 C 37.08799743652344 13.76621055603027 40.99518585205078 9.859001159667969 45.79776763916016 9.859001159667969 C 50.60060501098633 9.859001159667969 54.50799560546875 13.76621055603027 54.50799560546875 18.56882095336914 C 54.50799560546875 23.37143135070801 50.60060501098633 27.27864074707031 45.79776763916016 27.27864074707031 Z M 45.79776763916016 11.61719131469727 C 41.96465682983398 11.61719131469727 38.84618759155273 14.73568058013916 38.84618759155273 18.56882095336914 C 38.84618759155273 22.4019603729248 41.96465682983398 25.52045059204102 45.79776763916016 25.52045059204102 C 49.63113784790039 25.52045059204102 52.74981689453125 22.4019603729248 52.74981689453125 18.56882095336914 C 52.74981689453125 14.73568058013916 49.63113784790039 11.61719131469727 45.79776763916016 11.61719131469727 Z" stroke="none"/>
        <path d="M 45.79776763916016 27.07864189147949 C 50.49005508422852 27.07864189147949 54.3079948425293 23.26114082336426 54.3079948425293 18.56882095336914 C 54.3079948425293 13.87650108337402 50.49005508422852 10.05900096893311 45.79776763916016 10.05900096893311 C 41.10547637939453 10.05900096893311 37.28799819946289 13.87650108337402 37.28799819946289 18.56882095336914 C 37.28799819946289 23.26114082336426 41.10547637939453 27.07864189147949 45.79776763916016 27.07864189147949 M 45.79776763916016 11.41719055175781 C 49.74121475219727 11.41719055175781 52.9498176574707 14.62535095214844 52.9498176574707 18.56882095336914 C 52.9498176574707 22.51229095458984 49.74121475219727 25.72045135498047 45.79776763916016 25.72045135498047 C 41.85431671142578 25.72045135498047 38.64618682861328 22.51229095458984 38.64618682861328 18.56882095336914 C 38.64618682861328 14.62535095214844 41.85431671142578 11.41719055175781 45.79776763916016 11.41719055175781 M 45.79776763916016 27.47864151000977 C 40.88490676879883 27.47864151000977 36.88799667358398 23.48171043395996 36.88799667358398 18.56882095336914 C 36.88799667358398 13.655930519104 40.88490676879883 9.659001350402832 45.79776763916016 9.659001350402832 C 50.71088790893555 9.659001350402832 54.7079963684082 13.655930519104 54.7079963684082 18.56882095336914 C 54.7079963684082 23.48171043395996 50.71088790893555 27.47864151000977 45.79776763916016 27.47864151000977 Z M 45.79776763916016 11.8171911239624 C 42.07493591308594 11.8171911239624 39.04618835449219 14.84596061706543 39.04618835449219 18.56882095336914 C 39.04618835449219 22.29168128967285 42.07493591308594 25.3204517364502 45.79776763916016 25.3204517364502 C 49.52085494995117 25.3204517364502 52.5498161315918 22.29168128967285 52.5498161315918 18.56882095336914 C 52.5498161315918 14.84596061706543 49.52085494995117 11.8171911239624 45.79776763916016 11.8171911239624 Z" stroke="none" fill="#4CA780"/>
      </g>
      <path id="Path_183" data-name="Path 183" d="M48.693,23.628,47.54,24.866a3.958,3.958,0,0,0,3.023,1.293v1.486h1.294V26.1a2.874,2.874,0,0,0,2.754-2.917,2.828,2.828,0,0,0-.7-2.064,3,3,0,0,0-1.742-.77l-.486-.082V17.877a2.457,2.457,0,0,1,1.576.66l1.127-1.2a3.619,3.619,0,0,0-2.523-1.128V14.988H50.563v1.238A2.831,2.831,0,0,0,47.9,19.17a2.666,2.666,0,0,0,.653,1.913,2.97,2.97,0,0,0,1.768.825l.41.055v2.49A2.815,2.815,0,0,1,48.693,23.628Zm2.985-1.569a1.485,1.485,0,0,1,.909.358,1.135,1.135,0,0,1,.282.825c0,.674-.423,1.087-1.191,1.183ZM49.884,19.8a.982.982,0,0,1-.269-.7,1.185,1.185,0,0,1,1.115-1.21v2.3A1.459,1.459,0,0,1,49.884,19.8Z" transform="translate(3283.482 -44.106)" fill="#4CA780"/>
    </g>
  </g>
</svg>
