<svg width="620" height="539" viewBox="0 0 620 539" fill="none" xmlns="http://www.w3.org/2000/svg">
<path d="M619.77 74.97C619.77 126.449 619.924 177.85 619.77 229.329C619.152 410.779 463.404 552.866 282.726 536.967C133.924 523.924 16.0708 405.685 1.40667 254.876C-12.64 110.936 79.8212 -26.8298 220.211 -68.0438C248.767 -76.4563 279.33 -79.6207 309.199 -81.3958C347.094 -83.634 385.298 -81.3958 423.27 -82.3992C431.992 -82.6307 441.871 -86.2581 448.894 -91.5064C471.199 -108.254 492.578 -126.392 514.034 -144.22C535.181 -161.817 558.103 -167.837 583.881 -155.488C609.505 -143.217 619.847 -122.147 619.692 -94.4392C619.538 -37.9437 619.77 18.5518 619.77 74.97ZM571.918 74.7385C572.536 61.5408 577.784 -57.7017 574.079 -93.0499C573.462 -98.8384 572.227 -109.412 565.127 -112.268C559.184 -114.66 548.687 -111.959 543.053 -107.714C516.812 -87.7246 492.037 -65.8827 465.796 -45.8932C458.927 -40.645 448.971 -37.0947 440.404 -36.9404C396.258 -36.0914 352.034 -36.786 307.81 -36.4773C162.635 -35.474 43.3924 86.2383 46.248 231.259C49.0265 375.739 162.017 479.931 286.199 490.737C426.898 503.008 557.872 401.131 570.992 260.741C576.703 199.229 571.918 136.714 571.918 74.7385Z" fill="white" fill-opacity="0.2"/>
<path d="M269.537 278.959C266.527 284.361 262.514 288.761 257.497 292.234C252.481 295.707 246.769 298.254 240.209 299.952C233.649 301.65 226.857 302.498 219.834 302.498C211.112 302.498 203.626 301.341 197.529 299.103C191.432 296.864 186.338 293.932 182.479 290.381C178.543 286.831 175.687 283.049 173.989 278.959C172.214 274.868 171.365 270.932 171.365 267.227C171.365 265.221 171.751 263.291 172.445 261.593C173.217 259.895 174.143 258.429 175.378 257.271C176.613 256.114 177.925 255.11 179.469 254.493C181.012 253.798 182.479 253.489 183.945 253.489C185.875 253.489 187.65 254.03 189.193 255.11C190.814 256.191 191.895 257.889 192.435 260.281C193.901 266.301 196.68 271.164 200.693 274.791C204.707 278.418 211.112 280.271 219.834 280.271C228.323 280.271 235.115 278.804 240.132 275.872C245.149 272.939 247.618 268.694 247.618 263.06C247.618 259.278 246.538 256.191 244.377 253.798C242.216 251.328 239.36 249.245 235.81 247.547C232.26 245.849 228.169 244.382 223.616 243.225C219.062 242.067 214.431 240.755 209.723 239.443C205.015 238.131 200.384 236.664 195.831 234.966C191.277 233.268 187.264 231.107 183.636 228.406C180.086 225.705 177.153 222.463 175.07 218.527C172.909 214.591 171.828 209.729 171.828 203.94C171.905 197.457 173.217 191.746 175.687 186.729C178.157 181.712 181.475 177.545 185.798 174.149C190.12 170.753 195.213 168.129 201.156 166.276C207.099 164.424 213.505 163.575 220.606 163.575C229.095 163.575 236.427 164.733 242.447 167.048C248.467 169.364 253.407 172.219 257.266 175.461C261.125 178.78 263.903 182.253 265.678 185.88C267.454 189.508 268.303 192.595 268.303 195.064C268.303 196.917 267.917 198.538 267.222 199.927C266.45 201.316 265.524 202.551 264.289 203.477C263.131 204.48 261.742 205.175 260.276 205.715C258.809 206.256 257.343 206.487 255.877 206.487C253.947 206.487 252.172 206.024 250.628 205.098C249.008 204.172 247.927 202.705 247.232 200.699C246.306 198.074 244.994 195.836 243.142 193.907C241.29 191.977 239.206 190.357 236.736 189.044C234.266 187.732 231.642 186.806 228.787 186.112C225.931 185.494 223.152 185.186 220.451 185.186C212.27 185.186 206.327 186.575 202.545 189.43C198.764 192.286 196.911 196.068 196.911 200.853C196.911 204.403 197.992 207.182 200.23 209.266C202.468 211.349 205.401 213.125 209.029 214.514C212.656 215.903 216.747 217.138 221.377 218.064C226.008 219.067 230.716 220.071 235.501 221.306C240.364 222.463 245.071 223.93 249.625 225.628C254.256 227.326 258.346 229.641 261.974 232.497C265.601 235.429 268.534 239.057 270.772 243.379C273.01 247.778 274.091 253.181 274.091 259.664C274.091 267.227 272.547 273.556 269.537 278.959Z" fill="white" fill-opacity="0.2"/>
<path d="M287.834 169.525C290.304 167.132 293.159 165.974 296.401 165.974C299.797 165.974 302.73 167.132 305.199 169.525C307.669 171.917 308.827 174.773 308.827 178.246C308.827 181.642 307.592 184.575 305.199 186.967C302.73 189.36 299.797 190.518 296.401 190.518C293.082 190.518 290.227 189.36 287.834 186.967C285.364 184.575 284.207 181.719 284.207 178.246C284.129 174.85 285.364 171.917 287.834 169.525ZM308.827 288.073C308.827 291.468 307.592 294.401 305.199 296.794C302.73 299.186 299.797 300.344 296.401 300.344C293.005 300.344 290.072 299.109 287.68 296.717C285.287 294.247 284.129 291.391 284.129 288.15V216.45C284.129 213.054 285.364 210.121 287.757 207.651C290.227 205.182 293.082 204.024 296.324 204.024C299.72 204.024 302.652 205.259 305.122 207.651C307.592 210.121 308.75 213.054 308.75 216.45V288.073H308.827Z" fill="white" fill-opacity="0.2"/>
<path d="M348.194 287.455C348.194 291.083 346.882 294.17 344.335 296.64C341.788 299.109 338.701 300.421 335.073 300.421C331.446 300.421 328.359 299.186 325.889 296.64C323.419 294.17 322.107 291.083 322.107 287.455V179.249C322.107 178.246 322.262 176.934 322.648 175.39C322.956 173.847 323.651 172.38 324.654 170.991C325.658 169.602 327.047 168.367 328.822 167.441C330.597 166.515 332.835 165.974 335.537 165.974H405.538C408.626 165.974 411.25 167.055 413.411 169.216C415.572 171.377 416.652 174.001 416.652 177.088C416.652 180.253 415.572 182.954 413.411 185.115C411.25 187.276 408.626 188.357 405.538 188.357H348.117V219.691H395.968C399.133 219.691 401.834 220.772 403.995 223.01C406.156 225.248 407.236 227.873 407.236 230.96C407.236 234.047 406.156 236.671 403.995 238.909C401.834 241.147 399.133 242.228 395.968 242.228H348.117V287.455H348.194Z" fill="white" fill-opacity="0.2"/>
<path d="M429.216 169.525C431.685 167.132 434.541 165.974 437.783 165.974C441.178 165.974 444.111 167.132 446.581 169.525C449.051 171.917 450.208 174.773 450.208 178.246C450.208 181.642 448.974 184.575 446.581 186.967C444.111 189.36 441.178 190.518 437.783 190.518C434.464 190.518 431.608 189.36 429.216 186.967C426.746 184.575 425.588 181.719 425.588 178.246C425.511 174.85 426.746 171.917 429.216 169.525ZM450.208 288.073C450.208 291.468 448.974 294.401 446.581 296.794C444.111 299.186 441.178 300.344 437.783 300.344C434.387 300.344 431.454 299.109 429.061 296.717C426.669 294.247 425.511 291.391 425.511 288.15V216.45C425.511 213.054 426.746 210.121 429.138 207.651C431.608 205.182 434.464 204.024 437.705 204.024C441.101 204.024 444.034 205.259 446.504 207.651C448.974 210.121 450.131 213.054 450.131 216.45V288.073H450.208Z" fill="white" fill-opacity="0.2"/>
</svg>
