<svg width="32" height="32" viewBox="0 0 32 32" fill="none" xmlns="http://www.w3.org/2000/svg">
<path d="M25.1001 2H25.1001C26.3996 2 27.646 2.51625 28.5649 3.43517C29.4838 4.3541 30.0001 5.60043 30.0001 6.89999V6.9C30.0001 8.19956 29.4838 9.44589 28.5649 10.3648C27.646 11.2838 26.3996 11.8 25.1001 11.8H20.2001V6.9C20.2001 5.60044 20.7163 4.35411 21.6352 3.43518C22.5542 2.51625 23.8005 2 25.1001 2V2Z" stroke="#FFFFFF" stroke-width="3" stroke-linecap="round" stroke-linejoin="round"/>
<path d="M11.8 11.8H6.90005C5.60049 11.8 4.35415 11.2838 3.43523 10.3649C2.5163 9.44594 2.00005 8.19961 2.00005 6.90005V6.90004C2.00005 5.60048 2.5163 4.35415 3.43522 3.43522C4.35415 2.5163 5.60048 2.00005 6.90004 2.00005H6.90005C8.19961 2.00005 9.44594 2.5163 10.3649 3.43523C11.2838 4.35415 11.8 5.60049 11.8 6.90005V11.8Z" stroke="#FFFFFF" stroke-width="3" stroke-linecap="round" stroke-linejoin="round"/>
<path d="M20.2001 20.2001H25.1001C26.3996 20.2001 27.646 20.7163 28.5649 21.6352C29.4838 22.5542 30.0001 23.8005 30.0001 25.1001V25.1001C30.0001 26.3996 29.4838 27.646 28.5649 28.5649C27.646 29.4838 26.3996 30.0001 25.1001 30.0001H25.1001C23.8005 30.0001 22.5542 29.4838 21.6352 28.5649C20.7163 27.646 20.2001 26.3996 20.2001 25.1001V20.2001Z" stroke="#FFFFFF" stroke-width="3" stroke-linecap="round" stroke-linejoin="round"/>
<path d="M6.90005 30H6.90004C5.60048 30 4.35415 29.4838 3.43522 28.5648C2.5163 27.6459 2.00005 26.3996 2.00005 25.1V25.1C2.00005 23.8004 2.5163 22.5541 3.43523 21.6352C4.35415 20.7162 5.60049 20.2 6.90005 20.2H11.8L11.8 25.1C11.8 26.3996 11.2838 27.6459 10.3649 28.5648C9.44594 29.4838 8.19961 30 6.90005 30V30Z" stroke="#FFFFFF" stroke-width="3" stroke-linecap="round" stroke-linejoin="round"/>
<path d="M20.2 11.8H11.8V20.2H20.2V11.8Z" stroke="#FFFFFF" stroke-width="3" stroke-linecap="round" stroke-linejoin="round"/>
</svg>
