<svg width="37" height="27" viewBox="0 0 37 27" fill="none" xmlns="http://www.w3.org/2000/svg">
<path d="M31.4337 0H5.51368C4.05006 0.00376254 2.64767 0.587825 1.61406 1.6241C0.580446 2.66037 -4.83615e-06 4.06427 0 5.52789V21.4721C-4.83615e-06 22.9357 0.580446 24.3396 1.61406 25.3759C2.64767 26.4122 4.05006 26.9962 5.51368 27H31.4337C32.8973 26.9962 34.2997 26.4122 35.3333 25.3759C36.3669 24.3396 36.9474 22.9357 36.9474 21.4721V5.52789C36.9474 4.06427 36.3669 2.66037 35.3333 1.6241C34.2997 0.587825 32.8973 0.00376254 31.4337 0ZM5.51368 2.84211H31.4337C32.1435 2.84586 32.823 3.13049 33.3236 3.63376C33.8243 4.13704 34.1053 4.81803 34.1053 5.52789V7.10526H2.84211V5.52789C2.8421 4.81803 3.12311 4.13704 3.62372 3.63376C4.12434 3.13049 4.80383 2.84586 5.51368 2.84211ZM31.4337 24.1579H5.51368C4.80383 24.1541 4.12434 23.8695 3.62372 23.3662C3.12311 22.863 2.8421 22.182 2.84211 21.4721V9.94737H34.1053V21.4721C34.1053 22.182 33.8243 22.863 33.3236 23.3662C32.823 23.8695 32.1435 24.1541 31.4337 24.1579Z" fill="#4CA780"/>
<path d="M29.842 18.4737H22.7367C22.3598 18.4737 21.9984 18.6234 21.7319 18.8899C21.4654 19.1564 21.3157 19.5179 21.3157 19.8947C21.3157 20.2716 21.4654 20.6331 21.7319 20.8996C21.9984 21.1661 22.3598 21.3158 22.7367 21.3158H29.842C30.2189 21.3158 30.5803 21.1661 30.8468 20.8996C31.1133 20.6331 31.263 20.2716 31.263 19.8947C31.263 19.5179 31.1133 19.1564 30.8468 18.8899C30.5803 18.6234 30.2189 18.4737 29.842 18.4737Z" fill="#4CA780"/>
</svg>
