<svg width="50" height="34" viewBox="0 0 50 34" fill="none" xmlns="http://www.w3.org/2000/svg">
<path d="M36.1716 8.57127V3.31425C36.1716 2.58841 35.5832 2 34.8573 2H3.31523C2.58939 2 2.00098 2.58841 2.00098 3.31425V24.3423C2.00098 25.0682 2.58939 25.6566 3.31523 25.6566H13.8293" stroke="#4CA780" stroke-width="3" stroke-linecap="round" stroke-linejoin="round"/>
<path d="M2 8.71146L15.1435 8.5714" stroke="#4CA780" stroke-width="3" stroke-linecap="round" stroke-linejoin="round"/>
<path d="M46.6857 8.57123H15.1436C14.4178 8.57123 13.8293 9.15964 13.8293 9.88548V30.9136C13.8293 31.6394 14.4178 32.2278 15.1436 32.2278H46.6857C47.4116 32.2278 48 31.6394 48 30.9136V9.88548C48 9.15964 47.4116 8.57123 46.6857 8.57123Z" stroke="#4CA780" stroke-width="3" stroke-linecap="round" stroke-linejoin="round"/>
<path d="M37.4849 26.9707H42.7419" stroke="#4CA780" stroke-width="3" stroke-linecap="round" stroke-linejoin="round"/>
<path d="M13.8284 15.2825H47.999" stroke="#4CA780" stroke-width="3" stroke-linecap="round" stroke-linejoin="round"/>
</svg>
