<svg xmlns="http://www.w3.org/2000/svg" width="36" height="36" viewBox="0 0 36 36">
  <g id="Single_platform" data-name="Single platform" transform="translate(-0.5 -0.25)">
    <path id="Path_144" data-name="Path 144" d="M22.942,13.808H14.058v8.885h8.885Z" fill="none" stroke="#FFFFFF" stroke-linecap="round" stroke-linejoin="round" stroke-width="3"/>
    <path id="Path_145" data-name="Path 145" d="M29.923,5.558H7.077A1.269,1.269,0,0,0,5.808,6.827V29.673a1.269,1.269,0,0,0,1.269,1.269H29.923a1.269,1.269,0,0,0,1.269-1.269V6.827A1.269,1.269,0,0,0,29.923,5.558Z" fill="none" stroke="#FFFFFF" stroke-linecap="round" stroke-linejoin="round" stroke-width="3"/>
    <path id="Path_146" data-name="Path 146" d="M31.192,14.442H35" fill="none" stroke="#FFFFFF" stroke-linecap="round" stroke-linejoin="round" stroke-width="3"/>
    <path id="Path_147" data-name="Path 147" d="M31.192,22.058H35" fill="none" stroke="#FFFFFF" stroke-linecap="round" stroke-linejoin="round" stroke-width="3"/>
    <path id="Path_148" data-name="Path 148" d="M2,14.442H5.808" fill="none" stroke="#FFFFFF" stroke-linecap="round" stroke-linejoin="round" stroke-width="3"/>
    <path id="Path_149" data-name="Path 149" d="M2,22.058H5.808" fill="none" stroke="#FFFFFF" stroke-linecap="round" stroke-linejoin="round" stroke-width="3"/>
    <path id="Path_150" data-name="Path 150" d="M22.308,30.942V34.75" fill="none" stroke="#FFFFFF" stroke-linecap="round" stroke-linejoin="round" stroke-width="3"/>
    <path id="Path_151" data-name="Path 151" d="M14.692,30.942V34.75" fill="none" stroke="#FFFFFF" stroke-linecap="round" stroke-linejoin="round" stroke-width="3"/>
    <path id="Path_152" data-name="Path 152" d="M22.308,1.75V5.558" fill="none" stroke="#FFFFFF" stroke-linecap="round" stroke-linejoin="round" stroke-width="3"/>
    <path id="Path_153" data-name="Path 153" d="M14.692,1.75V5.558" fill="none" stroke="#FFFFFF" stroke-linecap="round" stroke-linejoin="round" stroke-width="3"/>
  </g>
</svg>
