<svg xmlns="http://www.w3.org/2000/svg" width="44" height="26.01" viewBox="0 0 44 26.01">
  <g id="Virtual_card" data-name="Virtual card" transform="translate(0.5 0.5)">
    <g id="Group_8" data-name="Group 8" transform="translate(0)">
      <path id="Path_184" data-name="Path 184" d="M7.643,131.01H35.357a7.666,7.666,0,0,0,5.379-2.19,7.367,7.367,0,0,0,0-10.627,7.665,7.665,0,0,0-4.12-2.087q0-.051,0-.1a10.08,10.08,0,0,0-18.71-5.135,7.575,7.575,0,0,0-11.434,5.223,7.663,7.663,0,0,0-4.209,2.1,7.367,7.367,0,0,0,0,10.627A7.666,7.666,0,0,0,7.643,131.01Zm27.715-12.505a5,5,0,1,1,0,10H7.643a5,5,0,1,1,0-10H8.9v-1.25a5.042,5.042,0,0,1,8.566-3.565l1.356,1.322.7-1.755A7.557,7.557,0,0,1,34.1,116a6.725,6.725,0,0,1-.1.949l-.226,1.552Z" transform="translate(0 -106)" fill="#4ca780" stroke="#4ca780" stroke-width="1"/>
    </g>
  </g>
</svg>
